<?xml version="1.0" encoding="UTF-8"?>
<svg version="1.1" xmlns="http://www.w3.org/2000/svg" width="254" height="250">
<path d="M0 0 C83.82 0 167.64 0 254 0 C254 82.5 254 165 254 250 C170.18 250 86.36 250 0 250 C0 167.5 0 85 0 0 Z " fill="#FBFCFC" transform="translate(0,0)"/>
<path d="M0 0 C5.62930893 5.2256981 9.90969846 11.06265816 10.43359375 18.98046875 C10.45724957 20.38261357 10.45783794 21.78530313 10.4375 23.1875 C10.42920166 23.93290039 10.42090332 24.67830078 10.41235352 25.44628906 C9.97907641 39.77372995 2.57743774 52.8233387 -6 64 C-6.47050781 63.59007813 -6.94101563 63.18015625 -7.42578125 62.7578125 C-8.04839844 62.21898438 -8.67101562 61.68015625 -9.3125 61.125 C-9.92738281 60.59132813 -10.54226562 60.05765625 -11.17578125 59.5078125 C-13.13498212 57.8359553 -13.13498212 57.8359553 -16 56 C-14.72173911 53.39356859 -13.3720443 50.86086899 -11.90625 48.35546875 C-11.51566406 47.67806641 -11.12507812 47.00066406 -10.72265625 46.30273438 C-9.91262409 44.90135286 -9.09757287 43.5028596 -8.27734375 42.10742188 C-3.84504214 34.37649316 -1.907662 26.92750313 -3 18 C-6.16642355 11.54987796 -10.88193558 8.06209746 -17.57373047 5.63500977 C-22.30263968 4.39734697 -27.07736223 4.51591367 -31.9375 4.5625 C-33.59857788 4.57385986 -33.59857788 4.57385986 -35.29321289 4.58544922 C-44.69158574 4.77239326 -53.06470446 6.19563235 -62 9 C-62.70608398 9.20898926 -63.41216797 9.41797852 -64.13964844 9.63330078 C-91.12836232 17.64351266 -116.38994989 31.33930869 -139 48 C-139.58990723 48.43441406 -140.17981445 48.86882813 -140.78759766 49.31640625 C-147.82634595 54.5404011 -154.56355183 60.04586965 -161 66 C-161.556875 65.278125 -162.11375 64.55625 -162.6875 63.8125 C-164.97909334 61.02542701 -167.41459857 58.51358472 -170 56 C-164.08898918 50.60842564 -158.03288799 45.53987702 -151.625 40.75 C-150.76358398 40.10595215 -149.90216797 39.4619043 -149.01464844 38.79833984 C-140.30858531 32.36956447 -131.28523828 26.55146999 -122 21 C-121.32018066 20.59056152 -120.64036133 20.18112305 -119.93994141 19.75927734 C-89.41999351 1.51945623 -33.12121254 -25.44259233 0 0 Z " fill="#13ADAA" transform="translate(226,15)"/>
<path d="M0 0 C2.64 0 5.28 0 8 0 C8 0.99 8 1.98 8 3 C19.88 2.34 31.76 1.68 44 1 C44 2.98 44 4.96 44 7 C43 8 43 8 40.71484375 8.09765625 C39.79832031 8.08605469 38.88179687 8.07445312 37.9375 8.0625 C37.01839844 8.05347656 36.09929688 8.04445312 35.15234375 8.03515625 C34.44207031 8.02355469 33.73179688 8.01195312 33 8 C33 9.65 33 11.3 33 13 C36.96 13 40.92 13 45 13 C45 14.65 45 16.3 45 18 C41.04 18 37.08 18 33 18 C33 19.65 33 21.3 33 23 C33.93972656 22.94779297 33.93972656 22.94779297 34.8984375 22.89453125 C35.71570312 22.86746094 36.53296875 22.84039062 37.375 22.8125 C38.18710937 22.77769531 38.99921875 22.74289063 39.8359375 22.70703125 C40.55007812 22.80371094 41.26421875 22.90039062 42 23 C44.45286296 26.67929445 44.23228878 28.47377907 44.1953125 32.85546875 C44.1924826 33.51710526 44.18965271 34.17874176 44.18673706 34.86042786 C44.17555918 36.96963737 44.15045981 39.07841925 44.125 41.1875 C44.11496707 42.61913448 44.10584176 44.05077564 44.09765625 45.48242188 C44.07733071 48.98857778 44.03817991 52.4938113 44 56 C35.09 56 26.18 56 17 56 C17 45.11 17 34.22 17 23 C19.97 23 22.94 23 26 23 C26 21.35 26 19.7 26 18 C22.37 18 18.74 18 15 18 C15.02320312 19.53269531 15.04640625 21.06539062 15.0703125 22.64453125 C15.08908862 24.70051591 15.10728682 26.75650591 15.125 28.8125 C15.14175781 29.81732422 15.15851562 30.82214844 15.17578125 31.85742188 C15.2286513 40.07871439 15.05159712 48.64651074 11 56 C8.69 56 6.38 56 4 56 C4 55.01 4 54.02 4 53 C3.67 53.99 3.34 54.98 3 56 C0.69 56 -1.62 56 -4 56 C-4 48.08 -4 40.16 -4 32 C-6.97 32.495 -6.97 32.495 -10 33 C-8.38102741 29.69918209 -6.64075691 26.47442567 -4.875 23.25 C-4.06675781 21.77273437 -4.06675781 21.77273437 -3.2421875 20.265625 C-2.83226562 19.51796875 -2.42234375 18.7703125 -2 18 C-4.64 18 -7.28 18 -10 18 C-6.72591106 11.96476272 -3.43506486 5.94530457 0 0 Z " fill="#18347F" transform="translate(21,193)"/>
<path d="M0 0 C2.31 0 4.62 0 7 0 C7.24234375 0.56589844 7.4846875 1.13179687 7.734375 1.71484375 C8.06953125 2.44832031 8.4046875 3.18179688 8.75 3.9375 C9.23726562 5.03384766 9.23726562 5.03384766 9.734375 6.15234375 C11.02622683 8.47640334 11.02622683 8.47640334 15 9 C15.66 6.36 16.32 3.72 17 1 C19.31 1 21.62 1 24 1 C23.125 6.75 23.125 6.75 22 9 C23.32 9.33 24.64 9.66 26 10 C26 11.98 26 13.96 26 16 C22.37 16 18.74 16 15 16 C15 19.3 15 22.6 15 26 C18.96 26 22.92 26 27 26 C27 28.31 27 30.62 27 33 C22.545 33.495 22.545 33.495 18 34 C19.26587358 36.58587003 20.53745849 39.16865501 21.8125 41.75 C22.16892578 42.47960937 22.52535156 43.20921875 22.89257812 43.9609375 C24.68888852 47.58651812 26.52560287 50.78406429 29 54 C29 54.66 29 55.32 29 56 C25.75 56.3125 25.75 56.3125 22 56 C17.92744014 52.28678366 15.57170098 46.83774897 13 42 C12.57589844 42.59167969 12.15179688 43.18335938 11.71484375 43.79296875 C7.91456573 48.91290375 4.42749924 52.63495047 -1 56 C-1.33 56 -1.66 56 -2 56 C-2.73180731 50.02357362 -2.73180731 50.02357362 -0.8046875 47.328125 C0.25826737 46.20641383 1.32622486 45.08942775 2.3984375 43.9765625 C5.27668931 40.42437856 6.47749297 36.27473127 8 32 C4.37 32 0.74 32 -3 32 C-3 30.02 -3 28.04 -3 26 C0.63 26 4.26 26 8 26 C8 22.7 8 19.4 8 16 C4.7 16 1.4 16 -2 16 C-2 13.69 -2 11.38 -2 9 C-2.66 9 -3.32 9 -4 9 C-4 19.23 -4 29.46 -4 40 C-3.01 40 -2.02 40 -1 40 C-1 41.98 -1 43.96 -1 46 C-1.99 46 -2.98 46 -4 46 C-4 49.3 -4 52.6 -4 56 C-6.31 56 -8.62 56 -11 56 C-11 53.36 -11 50.72 -11 48 C-12.7634375 48.495 -12.7634375 48.495 -14.5625 49 C-18.5011676 49.9969533 -21.95139129 50.16869203 -26 50 C-26 48.35 -26 46.7 -26 45 C-25.01 44.505 -25.01 44.505 -24 44 C-23.67 32.12 -23.34 20.24 -23 8 C-23.99 8 -24.98 8 -26 8 C-26 6.02 -26 4.04 -26 2 C-17.75 2 -9.5 2 -1 2 C-0.67 1.34 -0.34 0.68 0 0 Z " fill="#152F78" transform="translate(211,193)"/>
<path d="M0 0 C0 0.66 0 1.32 0 2 C-4.00550801 5.17865188 -8.94194189 9.04803233 -14.23828125 8.96484375 C-16.58124266 8.1322963 -18.75492916 7.07004885 -21 6 C-23.55700943 5.12835493 -26.1066456 4.29305604 -28.6875 3.5 C-29.38520508 3.28545166 -30.08291016 3.07090332 -30.80175781 2.84985352 C-32.86497171 2.22312968 -34.93168392 1.60964648 -37 1 C-38.08925781 0.67386719 -39.17851563 0.34773438 -40.30078125 0.01171875 C-47.96650675 -1.96321175 -55.42013699 -2.33393668 -63.3125 -2.4375 C-64.32699219 -2.45981689 -65.34148437 -2.48213379 -66.38671875 -2.50512695 C-74.4462405 -2.4806681 -80.11123403 -0.45161333 -86.875 3.8125 C-90.62726888 7.67512973 -91.90367231 11.44751878 -92.234375 16.77734375 C-92.16264398 21.00996171 -91.05334243 24.38469504 -89.4375 28.3125 C-89.17445068 28.95477539 -88.91140137 29.59705078 -88.64038086 30.25878906 C-86.40537677 35.51101602 -83.54049666 40.17892187 -80.22265625 44.828125 C-79.81917969 45.54484375 -79.41570312 46.2615625 -79 47 C-80.07165569 50.21496708 -80.88376774 51.08462512 -83.375 53.25 C-83.98085937 53.79140625 -84.58671875 54.3328125 -85.2109375 54.890625 C-85.80132812 55.25671875 -86.39171875 55.6228125 -87 56 C-92.92939183 54.02353606 -95.70777777 46.49806598 -98.4609375 41.17578125 C-99.73047737 38.4789708 -100.89378461 35.76756452 -102 33 C-102.32097656 32.21238281 -102.64195313 31.42476562 -102.97265625 30.61328125 C-105.89717298 22.38382721 -107.14890676 11.61626809 -103.375 3.5 C-102.25 1.6953125 -102.25 1.6953125 -101 0 C-100.5875 -0.60070313 -100.175 -1.20140625 -99.75 -1.8203125 C-94.03408486 -9.32245112 -85.66911478 -13.59688146 -76.55859375 -15.5234375 C-49.77255783 -19.1105905 -24.41651857 -10.07830767 0 0 Z " fill="#0CAFB3" transform="translate(117,22)"/>
<path d="M0 0 C0.70576172 0.63228516 0.70576172 0.63228516 1.42578125 1.27734375 C2.04839844 1.82519531 2.67101562 2.37304688 3.3125 2.9375 C4.23482422 3.75541016 4.23482422 3.75541016 5.17578125 4.58984375 C7.05241958 6.20081559 7.05241958 6.20081559 10 7 C7.92141669 11.34025427 5.44638714 15.45809461 3.00976562 19.60351562 C-0.82478016 26.22550901 -3.42284115 31.79499857 -3.375 39.625 C-3.38273437 40.89601562 -3.39046875 42.16703125 -3.3984375 43.4765625 C-2.86622992 48.18294717 -1.24695136 50.71408141 2 54.0625 C14.63405373 62.22199304 29.0892736 61.34423079 43.3125 58.4375 C53.10880659 56.27636918 62.58521334 53.03076645 72.03320312 49.69262695 C73.68298866 49.11163868 75.34066106 48.55311298 77 48 C77.64757625 49.43671568 78.29299453 50.87440416 78.9375 52.3125 C79.47697266 53.51326172 79.47697266 53.51326172 80.02734375 54.73828125 C81 57 81 57 82 60 C72.34343459 64.58814589 62.32289236 67.32572631 52 70 C51.2889209 70.1851416 50.5778418 70.3702832 49.84521484 70.56103516 C41.26335597 72.70703477 32.93600743 73.2863694 24.125 73.375 C23.17383301 73.38901855 22.22266602 73.40303711 21.24267578 73.41748047 C9.79790335 73.33957052 -0.51383639 69.88875381 -9.078125 62.11328125 C-16.19467002 54.50336231 -17.55133621 47.76934843 -17.27734375 37.4453125 C-16.17011739 23.69075408 -8.16235049 10.76735596 0 0 Z " fill="#0B3EA0" transform="translate(29,101)"/>
<path d="M0 0 C4.48463142 1.48470791 6.20520221 4.99732209 8.4375 8.875 C8.82929443 9.55336914 9.22108887 10.23173828 9.62475586 10.93066406 C10.76844884 12.94401806 11.88653752 14.96981078 13 17 C13.55945313 17.98742187 14.11890625 18.97484375 14.6953125 19.9921875 C19.3616201 29.40479655 19.91798499 41.08849462 17.11328125 51.1953125 C13.24496326 59.60022933 7.04579621 64.85814408 -1.08203125 68.95703125 C-18.07457061 75.03066982 -37.0136692 72.78181813 -54 68 C-55.12027588 67.69521729 -55.12027588 67.69521729 -56.26318359 67.38427734 C-64.70924185 65.07784679 -72.97149282 62.53096507 -81 59 C-80.360625 57.9275 -79.72125 56.855 -79.0625 55.75 C-77.59398727 53.19177818 -76.47145458 50.94659114 -76 48 C-71.18862919 48.79382778 -66.68118817 50.35766757 -62.0625 51.875 C-54.10447592 54.44370991 -46.22389036 56.45105588 -38 58 C-37.22527344 58.18304688 -36.45054687 58.36609375 -35.65234375 58.5546875 C-22.99885733 60.67913146 -10.27909211 59.31931277 1 53 C2.20003343 51.18398635 2.20003343 51.18398635 3 49 C3.3403125 48.236875 3.680625 47.47375 4.03125 46.6875 C6.57356119 39.63463669 5.39726296 32.39897865 2.41796875 25.6875 C0.08561896 21.26695826 -2.57290734 17.07140428 -5.29296875 12.8828125 C-6.72771524 10.45983101 -7.55630267 8.74165218 -8 6 C-7.05125 5.38125 -6.1025 4.7625 -5.125 4.125 C-2.05554891 2.18029031 -2.05554891 2.18029031 0 0 Z " fill="#08A7B0" transform="translate(218,102)"/>
<path d="M0 0 C3.90809958 1.07809643 6.92807314 2.9448941 9.09765625 6.39453125 C10.54941571 10.14034458 9.8879779 13.70293567 8.92578125 17.53125 C7.10457829 20.35117717 5.91887169 22.03470478 2.92578125 23.53125 C2.59578125 34.42125 2.26578125 45.31125 1.92578125 56.53125 C3.57578125 57.19125 5.22578125 57.85125 6.92578125 58.53125 C11.85440383 64.00749731 11.85440383 64.00749731 12.015625 67.44921875 C11.59234446 73.75501353 9.64410922 77.32605584 4.92578125 81.53125 C1.22124323 83.38351901 -3.03068328 82.99045277 -7.07421875 82.53125 C-10.96327679 80.29711028 -13.33002438 77.66223667 -15.07421875 73.53125 C-15.83824903 69.47424921 -15.96300069 66.07870852 -13.8671875 62.4296875 C-11.12052387 59.0502482 -9.34946855 57.47493588 -5.07421875 56.53125 C-5.09364528 51.90392675 -5.14537532 47.27850378 -5.22680664 42.65185547 C-5.24997436 41.07871867 -5.26437954 39.50542704 -5.26977539 37.93212891 C-5.27907501 35.66731428 -5.32007853 33.40493033 -5.3671875 31.140625 C-5.36325485 30.43943542 -5.3593222 29.73824585 -5.35527039 29.01580811 C-5.46747926 25.24344989 -5.76620043 23.82677655 -8.53637695 21.16894531 C-9.37386475 20.62850586 -10.21135254 20.08806641 -11.07421875 19.53125 C-13.62023601 16.0153214 -13.7090302 12.76332634 -13.07421875 8.53125 C-9.96751894 3.13937891 -6.52716912 -0.70975043 0 0 Z " fill="#0C89BA" transform="translate(126.07421875,77.46875)"/>
<path d="M0 0 C2.31 0 4.62 0 7 0 C7 1.65 7 3.3 7 5 C7.55985596 4.98428955 8.11971191 4.9685791 8.6965332 4.95239258 C11.2350859 4.89000152 13.77347729 4.85099782 16.3125 4.8125 C17.19357422 4.78736328 18.07464844 4.76222656 18.98242188 4.73632812 C19.82998047 4.72666016 20.67753906 4.71699219 21.55078125 4.70703125 C22.72120972 4.68346558 22.72120972 4.68346558 23.9152832 4.65942383 C26.59308923 5.09689185 27.32049157 5.90027895 29 8 C29.38095093 9.96629333 29.38095093 9.96629333 29.38818359 12.22436523 C29.39764008 13.07212021 29.40709656 13.91987518 29.4168396 14.7933197 C29.41076691 15.70586014 29.40469421 16.61840057 29.3984375 17.55859375 C29.40130768 18.49929214 29.40417786 19.43999054 29.40713501 20.40919495 C29.40917665 22.39886069 29.40363979 24.38854647 29.39111328 26.37817383 C29.37507903 29.42249542 29.39094944 32.46548574 29.41015625 35.50976562 C29.40817348 37.44271126 29.40432912 39.37565607 29.3984375 41.30859375 C29.40754654 42.67436806 29.40754654 42.67436806 29.4168396 44.06773376 C29.34699318 50.35261005 29.34699318 50.35261005 27.61645508 53.58129883 C25.44167741 55.49001851 24.16357737 55.41527985 21.3125 55.25 C20.50425781 55.21390625 19.69601563 55.1778125 18.86328125 55.140625 C18.24839844 55.09421875 17.63351563 55.0478125 17 55 C16.34 53.02 15.68 51.04 15 49 C17.31 49 19.62 49 22 49 C22 36.46 22 23.92 22 11 C21.34 11 20.68 11 20 11 C20.02320313 11.54785156 20.04640625 12.09570312 20.0703125 12.66015625 C20.38674866 26.56074483 17.46613867 38.99062047 13 52 C12.67 52.99 12.34 53.98 12 55 C9.69 55 7.38 55 5 55 C5.18175781 54.40574219 5.36351562 53.81148437 5.55078125 53.19921875 C9.8259432 39.10214628 13.1213902 25.75139613 14 11 C13.01 11 12.02 11 11 11 C11.02320313 11.65484375 11.04640625 12.3096875 11.0703125 12.984375 C11.27390534 23.28035557 9.56505247 32.63080328 6.5625 42.4375 C6.35729736 43.11192139 6.15209473 43.78634277 5.94067383 44.48120117 C4.71685584 48.30868355 3.3924901 51.7521637 1 55 C-1.6875 55.3125 -1.6875 55.3125 -4 55 C-3.36344292 51.39500837 -2.37867307 48.12295295 -1.125 44.6875 C2.25082115 34.72020324 4.23425426 24.54144182 4 14 C3.34 15.32 2.68 16.64 2 18 C0.35 18 -1.3 18 -3 18 C-2.01 12.06 -1.02 6.12 0 0 Z " fill="#132A76" transform="translate(150,194)"/>
<path d="M0 0 C3.10408807 -0.05807043 6.2080364 -0.09361914 9.3125 -0.125 C10.19357422 -0.14175781 11.07464844 -0.15851563 11.98242188 -0.17578125 C12.82998047 -0.18222656 13.67753906 -0.18867188 14.55078125 -0.1953125 C15.72120972 -0.21102295 15.72120972 -0.21102295 16.9152832 -0.22705078 C19 0 19 0 22 2 C22.1953745 4.7735893 22.20701158 7.30788515 22.07421875 10.0703125 C22.04777786 10.86654022 22.02133698 11.66276794 21.99409485 12.48312378 C21.90618446 15.03116632 21.79709023 17.57780663 21.6875 20.125 C21.62425632 21.85020985 21.56238976 23.57547078 21.50195312 25.30078125 C21.35062057 29.53461272 21.18028256 33.76730642 21 38 C22.98 37.505 22.98 37.505 25 37 C25 38.98 25 40.96 25 43 C24.01 43 23.02 43 22 43 C22 46.3 22 49.6 22 53 C19.69 53 17.38 53 15 53 C15 50.36 15 47.72 15 45 C13.2365625 45.495 13.2365625 45.495 11.4375 46 C7.4988324 46.9969533 4.04860871 47.16869203 0 47 C0 45.35 0 43.7 0 42 C0.99 41.505 0.99 41.505 2 41 C2.33 29.12 2.66 17.24 3 5 C2.01 5 1.02 5 0 5 C0 3.35 0 1.7 0 0 Z " fill="#112D79" transform="translate(185,196)"/>
<path d="M0 0 C2.67211914 1.31005859 2.67211914 1.31005859 5.53515625 3.1484375 C6.58630615 3.81939453 7.63745605 4.49035156 8.72045898 5.18164062 C9.82333252 5.90544922 10.92620605 6.62925781 12.0625 7.375 C12.90761642 7.92305298 12.90761642 7.92305298 13.76980591 8.48217773 C22.0135398 13.82870154 29.66726399 19.44833444 37 26 C38.90725007 27.55330113 40.82355592 29.0955686 42.75 30.625 C43.56984375 31.27726562 44.3896875 31.92953125 45.234375 32.6015625 C45.81703125 33.06304687 46.3996875 33.52453125 47 34 C46.236875 34.7425 45.47375 35.485 44.6875 36.25 C42.5606298 38.4263323 40.7440044 40.52167796 39 43 C36.19773905 41.68564474 33.81977477 40.21668246 31.3828125 38.3125 C30.70081787 37.78366211 30.01882324 37.25482422 29.31616211 36.70996094 C28.23153687 35.86353027 28.23153687 35.86353027 27.125 35 C15.55229193 26.08520367 4.1563499 17.79784991 -8.69921875 10.8125 C-12 9 -12 9 -15 7 C-15 6.34 -15 5.68 -15 5 C-13.44424022 4.15415002 -11.8800388 3.32381601 -10.3125 2.5 C-9.44238281 2.0359375 -8.57226562 1.571875 -7.67578125 1.09375 C-4.72414764 -0.11275717 -3.15829369 -0.31260545 0 0 Z " fill="#1DBDA8" transform="translate(146,37)"/>
<path d="M0 0 C4.43877287 1.44461881 7.17607185 3.70482463 10.625 6.8125 C22.05680725 16.82669581 35.09287946 25.02368955 48 33 C47.70351562 33.58265625 47.40703125 34.1653125 47.1015625 34.765625 C46.12782734 36.74071901 45.23274399 38.72260511 44.375 40.75 C43.694375 42.35875 43.694375 42.35875 43 44 C28.43230574 38.44797666 15.41967727 27.54717727 3.1875 18.0625 C2.6193457 17.62655518 2.05119141 17.19061035 1.46582031 16.74145508 C-1.85097327 14.12814758 -4.4921835 11.39435695 -7 8 C-4.69 5.36 -2.38 2.72 0 0 Z " fill="#0B5DB3" transform="translate(63,100)"/>
<path d="M0 0 C3.76488042 1.72154788 6.15063897 3.99234114 9 7 C3.53859832 19.87741029 -16.25026599 30.44523856 -27.6875 37.625 C-28.34637207 38.0387085 -29.00524414 38.45241699 -29.68408203 38.87866211 C-33.09142862 40.97051413 -36.25589939 42.50235976 -40 44 C-41.65 40.37 -43.3 36.74 -45 33 C-43.42992187 31.97261719 -41.85984375 30.94523437 -40.2421875 29.88671875 C-26.15966118 20.61945002 -12.65723005 11.15041695 0 0 Z " fill="#0B54AE" transform="translate(183,100)"/>
<path d="M0 0 C2.31 0 4.62 0 7 0 C7.33 1.32 7.66 2.64 8 4 C12.95 4.33 17.9 4.66 23 5 C22.67 6.65 22.34 8.3 22 10 C19.03 10 16.06 10 13 10 C13.01047363 10.98395752 13.02094727 11.96791504 13.03173828 12.98168945 C13.06794031 16.63253135 13.09090115 20.28335737 13.10986328 23.93432617 C13.11992041 25.51443144 13.13356785 27.0945181 13.15087891 28.67456055 C13.17514022 30.9458475 13.18648582 33.21688836 13.1953125 35.48828125 C13.20563507 36.19463211 13.21595764 36.90098297 13.22659302 37.6287384 C13.22743775 41.32197792 13.10720523 42.83919216 11 46 C9.125 46.3984375 9.125 46.3984375 7 46.375 C6.29875 46.38273437 5.5975 46.39046875 4.875 46.3984375 C3 46 3 46 1 43 C1 42.01 1 41.02 1 40 C2.65 40 4.3 40 6 40 C6 30.1 6 20.2 6 10 C4.68 10 3.36 10 2 10 C2.04640625 11.22074219 2.0928125 12.44148437 2.140625 13.69921875 C2.77349352 37.70179567 2.77349352 37.70179567 -5 46 C-8.1875 46.25 -8.1875 46.25 -11 46 C-10.00803373 42.87149099 -8.98266869 39.96569845 -7.5 37.03125 C-5.29299892 31.93199053 -5.18340892 26.54446573 -4.8125 21.0625 C-4.73064453 19.99708984 -4.64878906 18.93167969 -4.56445312 17.83398438 C-4.36544464 15.22346125 -4.18122817 12.61181771 -4 10 C-7.3 10 -10.6 10 -14 10 C-14 8.35 -14 6.7 -14 5 C-9.05 5 -4.1 5 1 5 C0.67 3.35 0.34 1.7 0 0 Z " fill="#0C2675" transform="translate(100,194)"/>
<path d="M0 0 C3.7961891 2.26243468 7.00476085 5.00952171 9 9 C9.76038689 15.81855126 9.2542913 20.54578038 5 26 C1.64578367 28.86169849 -1.6572326 30.23888472 -6.0625 30.5 C-11.96987795 29.74985677 -15.22457416 27.22752542 -18.875 22.6875 C-21.29108289 19.01255191 -21.6980019 16.42067868 -21 12 C-17.34077316 1.6451666 -10.99501562 -2.17343332 0 0 Z " fill="#13358C" transform="translate(52,75)"/>
<path d="M0 0 C4.45411364 2.1098433 7.19291449 4.38189258 9 9 C9.67142386 13.87403985 9.67039447 18.40921105 7.4375 22.875 C4.19881725 27.02715737 1.21512136 29.39677607 -4.01953125 30.37890625 C-9.17280898 30.68435866 -12.16635339 29.31087662 -16 26 C-19.62268077 21.69194719 -21.44245978 17.6255601 -21 12 C-19.73817702 7.91763153 -17.65252391 4.81565489 -15 1.5 C-10.13694772 -0.93152614 -5.32124368 -0.71382537 0 0 Z " fill="#133990" transform="translate(208,75)"/>
<path d="M0 0 C2.64 0 5.28 0 8 0 C8.07640543 6.26212704 8.12874837 12.52413271 8.16479492 18.78662109 C8.17983076 20.91459648 8.20026483 23.04254114 8.22631836 25.17041016 C8.26293089 28.23868417 8.27977881 31.30654649 8.29296875 34.375 C8.30845261 35.31802979 8.32393646 36.26105957 8.33988953 37.23266602 C8.34171548 44.48778443 7.09529174 49.85706239 3 56 C0.69 56 -1.62 56 -4 56 C-4 48.08 -4 40.16 -4 32 C-6.97 32.495 -6.97 32.495 -10 33 C-8.38102741 29.69918209 -6.64075691 26.47442567 -4.875 23.25 C-4.06675781 21.77273437 -4.06675781 21.77273437 -3.2421875 20.265625 C-2.83226562 19.51796875 -2.42234375 18.7703125 -2 18 C-4.64 18 -7.28 18 -10 18 C-6.72591106 11.96476272 -3.43506486 5.94530457 0 0 Z " fill="#F9F9F9" transform="translate(21,193)"/>
<path d="M0 0 C2.31 0 4.62 0 7 0 C7 2.97 7 5.94 7 9 C7.99 9 8.98 9 10 9 C10 10.98 10 12.96 10 15 C9.01 15 8.02 15 7 15 C7 19.95 7 24.9 7 30 C8.65 29.67 10.3 29.34 12 29 C12 30.98 12 32.96 12 35 C10.35 35 8.7 35 7 35 C7 41.6 7 48.2 7 55 C4.69 55 2.38 55 0 55 C0 49.39 0 43.78 0 38 C-4.455 38.495 -4.455 38.495 -9 39 C-9 37.02 -9 35.04 -9 33 C-4.545 32.505 -4.545 32.505 0 32 C0 26.39 0 20.78 0 15 C-0.99 15 -1.98 15 -3 15 C-2.979375 16.11375 -2.95875 17.2275 -2.9375 18.375 C-3 22 -3 22 -4 24 C-5.65 24 -7.3 24 -9 24 C-8.01 13.605 -8.01 13.605 -7 3 C-5.35 3 -3.7 3 -2 3 C-2 4.98 -2 6.96 -2 9 C-1.34 9 -0.68 9 0 9 C0 6.03 0 3.06 0 0 Z " fill="#132F7B" transform="translate(137,194)"/>
<path d="M0 0 C3.3 0 6.6 0 10 0 C9.34 1.32 8.68 2.64 8 4 C11.96 4.33 15.92 4.66 20 5 C20 8 20 11 20 14 C20.01160156 15.08410156 20.02320312 16.16820312 20.03515625 17.28515625 C20.04417969 18.53167969 20.05320312 19.77820313 20.0625 21.0625 C20.07410156 22.31160156 20.08570312 23.56070313 20.09765625 24.84765625 C20 28 20 28 19 30 C20.98 30.33 22.96 30.66 25 31 C25.33 21.76 25.66 12.52 26 3 C26.33 3 26.66 3 27 3 C27 12.9 27 22.8 27 33 C18.09 33 9.18 33 0 33 C0 22.11 0 11.22 0 0 Z " fill="#2F4384" transform="translate(38,216)"/>
<path d="M0 0 C1.62463842 -0.05395478 3.24978541 -0.09277195 4.875 -0.125 C5.77992187 -0.14820313 6.68484375 -0.17140625 7.6171875 -0.1953125 C10 0 10 0 12 2 C12.24291992 4.29077148 12.24291992 4.29077148 12.23046875 7.12109375 C12.22853516 8.13880859 12.22660156 9.15652344 12.22460938 10.20507812 C12.21236328 11.27177734 12.20011719 12.33847656 12.1875 13.4375 C12.18685547 14.50033203 12.18621094 15.56316406 12.18554688 16.65820312 C12.1404591 24.57862271 12.1404591 24.57862271 11 28 C15.45612964 30.21061262 19.70596374 30.34217636 24.58203125 30.4140625 C25.80329964 30.44311172 25.80329964 30.44311172 27.04924011 30.4727478 C29.63688852 30.53228752 32.22458203 30.57882583 34.8125 30.625 C36.57228449 30.6632034 38.33205074 30.7022565 40.09179688 30.7421875 C44.39438234 30.83796782 48.6970553 30.92209285 53 31 C53 33.31 53 35.62 53 38 C48.14366965 38.07453636 43.28767732 38.12878329 38.4309082 38.16479492 C36.78110956 38.17981806 35.13135042 38.2002426 33.48168945 38.22631836 C31.10097464 38.26298899 28.72079092 38.27979103 26.33984375 38.29296875 C25.61039047 38.30845261 24.88093719 38.32393646 24.12937927 38.33988953 C18.20565331 38.34180652 14.28066771 36.64033386 9 34 C8.34 35.32 7.68 36.64 7 38 C4.36 38 1.72 38 -1 38 C-0.47599609 37.17435547 -0.47599609 37.17435547 0.05859375 36.33203125 C5.3064287 26.74321102 4.92401861 16.69847723 5 6 C3.35 6 1.7 6 0 6 C0 4.02 0 2.04 0 0 Z " fill="#2E397D" transform="translate(71,211)"/>
<path d="M0 0 C1.32 0 2.64 0 4 0 C4 9.9 4 19.8 4 30 C2.35 30 0.7 30 -1 30 C-0.34 31.65 0.32 33.3 1 35 C7.93 35.66 14.86 36.32 22 37 C22 37.33 22 37.66 22 38 C16.82221598 38.07431132 11.64474431 38.12867808 6.46655273 38.16479492 C4.70608104 38.17985553 2.9456467 38.20030826 1.18530273 38.22631836 C-1.34921503 38.26282229 -3.88323552 38.27975354 -6.41796875 38.29296875 C-7.20149216 38.30845261 -7.98501556 38.32393646 -8.7922821 38.33988953 C-13.87486734 38.34144503 -15.38949135 37.76630519 -20 35 C-19.67 27.08 -19.34 19.16 -19 11 C-18.67 11 -18.34 11 -18 11 C-18 14.63 -18 18.26 -18 22 C-17.34 22 -16.68 22 -16 22 C-15.34 16.06 -14.68 10.12 -14 4 C-12.02 4 -10.04 4 -8 4 C-6 6 -6 6 -5.84765625 9.52734375 C-5.90143981 10.99815615 -5.97415903 12.46835819 -6.0625 13.9375 C-6.10632813 14.70006104 -6.15015625 15.46262207 -6.1953125 16.24829102 C-6.72251794 22.89374366 -8.66388074 28.21814467 -12 34 C-12.33 34.66 -12.66 35.32 -13 36 C-10.116025 36.21790719 -10.116025 36.21790719 -7 35 C-5.1256706 32.19451336 -4.04866394 29.19365837 -3 26 C-2.64679688 24.94941406 -2.29359375 23.89882812 -1.9296875 22.81640625 C-0.80461022 18.19791675 -0.54784159 13.79763947 -0.375 9.0625 C-0.33632812 8.18787109 -0.29765625 7.31324219 -0.2578125 6.41210938 C-0.1643893 4.27505369 -0.08114602 2.13755706 0 0 Z " fill="#EBECEE" transform="translate(102,204)"/>
<path d="M0 0 C3.90809958 1.07809643 6.92807314 2.9448941 9.09765625 6.39453125 C10.55183966 10.14659882 9.87619255 13.69541733 8.92578125 17.53125 C7.08158838 20.58370717 6.03851961 22.12942781 2.67578125 23.34375 C1.80953125 23.4365625 1.80953125 23.4365625 0.92578125 23.53125 C0.94640625 24.76875 0.96703125 26.00625 0.98828125 27.28125 C0.99344806 30.1953325 0.85593683 32.74078327 -0.07421875 35.53125 C-1.06421875 35.53125 -2.05421875 35.53125 -3.07421875 35.53125 C-3.40421875 31.57125 -3.73421875 27.61125 -4.07421875 23.53125 C-6.54921875 22.54125 -6.54921875 22.54125 -9.07421875 21.53125 C-11.75023465 18.42128557 -12.94213438 16.17966419 -13.76171875 12.15625 C-12.42199729 5.09226413 -7.64706059 -0.83152504 0 0 Z " fill="#099EB2" transform="translate(126.07421875,77.46875)"/>
<path d="M0 0 C7.59 0 15.18 0 23 0 C23 0.33 23 0.66 23 1 C19.37 1.33 15.74 1.66 12 2 C12 2.66 12 3.32 12 4 C10.35 4 8.7 4 7 4 C7 6.64 7 9.28 7 12 C10.3 12 13.6 12 17 12 C17.33 12.99 17.66 13.98 18 15 C14.37 15 10.74 15 7 15 C7.02320313 16.53269531 7.04640625 18.06539062 7.0703125 19.64453125 C7.08908862 21.70051591 7.10728682 23.75650591 7.125 25.8125 C7.14175781 26.81732422 7.15851562 27.82214844 7.17578125 28.85742188 C7.2286513 37.07871439 7.05159712 45.64651074 3 53 C0.69 53 -1.62 53 -4 53 C-3.79141357 52.45754639 -3.58282715 51.91509277 -3.36791992 51.35620117 C-0.03459452 41.25165778 -0.43505733 30.83391481 -0.3125 20.3125 C-0.27927351 18.33917076 -0.24477906 16.36586245 -0.20898438 14.39257812 C-0.12234251 9.59503682 -0.06176088 4.79818161 0 0 Z " fill="#18327C" transform="translate(29,196)"/>
<path d="M0 0 C0.99 0 1.98 0 3 0 C3.94614118 14.87544186 0.68469817 30.63060366 -6 44 C-3.69 44 -1.38 44 1 44 C1.17208984 43.01 1.17208984 43.01 1.34765625 42 C1.99662755 39.01550925 2.86567911 36.14102362 3.76489258 33.22412109 C7.08624524 22.24135422 8.24553073 11.41838571 9 0 C9.66 0 10.32 0 11 0 C11 12.54 11 25.08 11 38 C8.69 38 6.38 38 4 38 C4.66 39.98 5.32 41.96 6 44 C8.64 44 11.28 44 14 44 C14 44.33 14 44.66 14 45 C1.46 45 -11.08 45 -24 45 C-24 44.67 -24 44.34 -24 44 C-21.69 44 -19.38 44 -17 44 C-17 37.4 -17 30.8 -17 24 C-15.68 24.33 -14.36 24.66 -13 25 C-13.99 25 -14.98 25 -16 25 C-15.67 31.27 -15.34 37.54 -15 44 C-12.525 43.505 -12.525 43.505 -10 43 C-8.39251369 40.36770751 -8.39251369 40.36770751 -7.375 37.0625 C-6.96378906 35.86882812 -6.55257812 34.67515625 -6.12890625 33.4453125 C-5.57009766 31.73988281 -5.57009766 31.73988281 -5 30 C-4.69964844 29.21367187 -4.39929688 28.42734375 -4.08984375 27.6171875 C-0.95992032 18.84081929 -0.74751228 9.21976543 0 0 Z " fill="#E3E4E7" transform="translate(161,205)"/>
<path d="M0 0 C2.31 0 4.62 0 7 0 C7 0.99 7 1.98 7 3 C8.98 3 10.96 3 13 3 C13 10 13 17 13 24 C10.69 24.33 8.38 24.66 6 25 C6.33 25.66 6.66 26.32 7 27 C10.02934491 27.65772428 10.02934491 27.65772428 13 28 C13 30.97 13 33.94 13 37 C10.36 37.33 7.72 37.66 5 38 C5 36.02 5 34.04 5 32 C4.34 32 3.68 32 3 32 C1.70539547 29.41079094 1.8060468 27.4080687 1.71875 24.51171875 C1.68136719 23.41279297 1.64398438 22.31386719 1.60546875 21.18164062 C1.57066406 20.02857422 1.53585938 18.87550781 1.5 17.6875 C1.43087494 15.42045413 1.35809059 13.15351622 1.28125 10.88671875 C1.23581055 9.37404419 1.23581055 9.37404419 1.18945312 7.83081055 C1.00918545 5.13724901 0.59506543 2.62991216 0 0 Z " fill="#142F76" transform="translate(187,198)"/>
<path d="M0 0 C1.65 0.33 3.3 0.66 5 1 C4.50929685 5.31818769 3.70490209 7.64592141 1 11 C-2.42390447 17.92251231 -2.13532552 26.7532399 -0.171875 34.09765625 C1.25286402 37.70734951 2.8447966 40.76719489 5 44 C4.625 46.1875 4.625 46.1875 4 48 C2.02 48.495 2.02 48.495 0 49 C-6.9053153 41.6014479 -9.34209745 31.80072834 -9.2109375 21.9375 C-8.58991186 13.28914288 -5.11619971 6.85471417 0 0 Z " fill="#12B099" transform="translate(98,65)"/>
<path d="M0 0 C3.2145624 0.2947137 4.60149833 0.5304337 6.73046875 3.0390625 C12.47946133 13.24236837 15.23303169 22.90414804 12.01953125 34.5546875 C9.97653293 40.09907063 7.87493127 44.49580638 4 49 C2.35 48.67 0.7 48.34 -1 48 C-0.58268112 44.66144899 0.39462662 42.07309263 1.9375 39.125 C5.9735445 31.2877354 7.35296296 23.85240941 4.75 15.375 C3.67527613 12.36783994 2.60937865 10.43576916 0.75 7.75 C-1 5 -1 5 -0.75 2.125 C-0.5025 1.42375 -0.255 0.7225 0 0 Z " fill="#18B49C" transform="translate(147,65)"/>
<path d="M0 0 C1.134375 0.020625 2.26875 0.04125 3.4375 0.0625 C2.9530542 1.05902588 2.4686084 2.05555176 1.96948242 3.08227539 C0.29605048 7.00154018 0.01167186 10.46874119 -0.07421875 14.74609375 C-0.09216995 15.44646255 -0.11012115 16.14683136 -0.12861633 16.86842346 C-0.18227555 19.07888989 -0.21646932 21.28914612 -0.25 23.5 C-0.28321257 25.00979461 -0.31770581 26.51956163 -0.35351562 28.02929688 C-0.43797395 31.70682933 -0.5049955 35.38443591 -0.5625 39.0625 C-2.8725 39.0625 -5.1825 39.0625 -7.5625 39.0625 C-7.5625 31.1425 -7.5625 23.2225 -7.5625 15.0625 C-9.5425 15.3925 -11.5225 15.7225 -13.5625 16.0625 C-11.95520035 12.66213241 -10.02531671 9.54193574 -8 6.375 C-7.37996094 5.40175781 -6.75992187 4.42851562 -6.12109375 3.42578125 C-3.90698161 0.06854354 -3.90698161 0.06854354 0 0 Z " fill="#122A73" transform="translate(24.5625,209.9375)"/>
<path d="M0 0 C0.66 0 1.32 0 2 0 C2 2.31 2 4.62 2 7 C5.3 7 8.6 7 12 7 C12 10.3 12 13.6 12 17 C8.37 17 4.74 17 1 17 C1 18.98 1 20.96 1 23 C4.63 23 8.26 23 12 23 C10.82554711 28.87226447 9.17692081 33.94401923 4.75 38.125 C2.66210411 39.97095295 2.66210411 39.97095295 2.75 43.25 C2.87375 44.61125 2.87375 44.61125 3 46 C4.65 45.34 6.3 44.68 8 44 C6.88671875 45.984375 6.88671875 45.984375 5 48 C2.08203125 48.390625 2.08203125 48.390625 -1.1875 48.25 C-2.27417969 48.21390625 -3.36085937 48.1778125 -4.48046875 48.140625 C-5.31191406 48.09421875 -6.14335937 48.0478125 -7 48 C-7 47.67 -7 47.34 -7 47 C-4.69 47 -2.38 47 0 47 C0 43.7 0 40.4 0 37 C0.99 37 1.98 37 3 37 C3 35.02 3 33.04 3 31 C2.01 31 1.02 31 0 31 C0 20.77 0 10.54 0 0 Z " fill="#EFF0F1" transform="translate(207,202)"/>
<path d="M0 0 C0.66 0.33 1.32 0.66 2 1 C1.125 6.75 1.125 6.75 0 9 C1.65 9 3.3 9 5 9 C5.66 7.02 6.32 5.04 7 3 C7.33 3 7.66 3 8 3 C8.87627051 16.50105673 5.59572994 30.71894255 0 43 C-0.99 43.495 -0.99 43.495 -2 44 C-2 38.39 -2 32.78 -2 27 C-1.01 26.67 -0.02 26.34 1 26 C1.33 24.02 1.66 22.04 2 20 C0.35 20.33 -1.3 20.66 -3 21 C-3 16.05 -3 11.1 -3 6 C-2.01 6 -1.02 6 0 6 C0 4.02 0 2.04 0 0 Z " fill="#E9EAEC" transform="translate(147,203)"/>
<path d="M0 0 C3.63 0 7.26 0 11 0 C11 1.65 11 3.3 11 5 C8.03 5 5.06 5 2 5 C2 15.89 2 26.78 2 38 C10.58 38 19.16 38 28 38 C28 38.33 28 38.66 28 39 C12.49 39 -3.02 39 -19 39 C-19 38.67 -19 38.34 -19 38 C-16.69 38 -14.38 38 -12 38 C-12 27.44 -12 16.88 -12 6 C-11.67 6 -11.34 6 -11 6 C-10.67 16.23 -10.34 26.46 -10 37 C-8.02 37.33 -6.04 37.66 -4 38 C-0.83189916 25.38737212 -0.32595989 12.95971552 0 0 Z " fill="#ECECEE" transform="translate(36,211)"/>
<path d="M0 0 C6.15234375 -0.09765625 6.15234375 -0.09765625 8 0 C9.82595254 1.82595254 9.130419 4.7012322 9.1328125 7.15234375 C9.13474609 9.02889648 9.13474609 9.02889648 9.13671875 10.94335938 C9.13285156 12.26142578 9.12898438 13.57949219 9.125 14.9375 C9.12886719 16.25169922 9.13273437 17.56589844 9.13671875 18.91992188 C9.13542969 20.17224609 9.13414063 21.42457031 9.1328125 22.71484375 C9.13168457 23.87105225 9.13055664 25.02726074 9.12939453 26.21850586 C9 29 9 29 8 31 C8.66 31.33 9.32 31.66 10 32 C9.01 32.495 9.01 32.495 8 33 C6.86649466 35.01669827 6.86649466 35.01669827 6 37 C3.36 37 0.72 37 -2 37 C-1.47599609 36.17435547 -1.47599609 36.17435547 -0.94140625 35.33203125 C4.3064287 25.74321102 3.92401861 15.69847723 4 5 C2.35 5 0.7 5 -1 5 C-0.67 3.35 -0.34 1.7 0 0 Z " fill="#112D76" transform="translate(72,212)"/>
<path d="M0 0 C2.64764845 1.67684402 2.95477045 2.85138861 3.875 5.875 C4.02459154 9.61478838 3.21644734 11.04473688 1 14 C-1 16 -1 16 -4.3125 16.5 C-8 16 -8 16 -10.9375 13.375 C-13.19169357 9.68631961 -13.98385198 8.2037312 -13 4 C-8.82319948 -0.78803962 -6.3628125 -1.92084906 0 0 Z " fill="#F4F5F6" transform="translate(207,82)"/>
<path d="M0 0 C0.33 0 0.66 0 1 0 C2.63055054 11.19350911 0.82711231 20.73899676 -2.4375 31.4375 C-2.74518311 32.44913208 -2.74518311 32.44913208 -3.05908203 33.48120117 C-4.28333896 37.30855952 -5.60748229 40.75212622 -8 44 C-10.6875 44.3125 -10.6875 44.3125 -13 44 C-12.36344292 40.39500837 -11.37867307 37.12295295 -10.125 33.6875 C-8.13783951 27.94760838 -7.02205676 22.25997988 -6.21533203 16.2565918 C-5.90625 14.2734375 -5.90625 14.2734375 -5 11 C-2.953125 9.828125 -2.953125 9.828125 -1 9 C-0.3006486 6.81458448 -0.3006486 6.81458448 -0.25 4.375 C-0.19328125 3.55773437 -0.1365625 2.74046875 -0.078125 1.8984375 C-0.05234375 1.27195313 -0.0265625 0.64546875 0 0 Z " fill="#142A6D" transform="translate(159,205)"/>
<path d="M0 0 C1.9375 1.0625 1.9375 1.0625 3 3 C3.51924271 7.59900687 3.57474194 9.89649547 1.4375 14 C-1 16 -1 16 -4.4375 16.625 C-8.91145674 15.84009531 -10.36788535 14.66900829 -13 11 C-13.7446324 7.02862719 -13.37266878 5.55900317 -11.125 2.1875 C-7.37806433 -1.66963966 -5.15131083 -1.08448649 0 0 Z " fill="#F6F6F8" transform="translate(51,82)"/>
<path d="M0 0 C2.3125 0.0625 2.3125 0.0625 5 1 C10.25598035 7.71597489 10.76994274 13.7051502 10 22 C8.71070313 26.25284654 7.15738559 29.84261441 4 33 C1.875 32.625 1.875 32.625 0 32 C-0.75 30.4375 -0.75 30.4375 -1 28 C0.01632544 26.32798074 1.03382651 24.65663836 2.0625 22.9921875 C3.75008784 19.40606333 3.60667719 15.85874913 3 12 C1.64185993 8.78287055 1.64185993 8.78287055 0 6 C-0.75 3.1875 -0.75 3.1875 -1 1 C-0.67 0.67 -0.34 0.34 0 0 Z " fill="#1BB69C" transform="translate(138,73)"/>
<path d="M0 0 C2.625 0.375 2.625 0.375 5 1 C4.55494888 4.02634761 3.9366404 6.11404729 2.4375 8.8125 C0.43960884 13.24260649 0.10813158 17.33520527 1.64453125 21.92578125 C2.38792537 23.63595394 3.19201038 25.3193816 4 27 C4.8125 29.3125 4.8125 29.3125 5 31 C4.34 31.66 3.68 32.32 3 33 C0.38268249 32.81155314 -0.69819708 32.32721791 -2.484375 30.390625 C-6.42804337 23.72046985 -7.06926405 17.64860953 -6 10 C-4.70012215 6.07013673 -2.95584928 2.95584928 0 0 Z " fill="#16B192" transform="translate(107,73)"/>
<path d="M0 0 C0 0.99 0 1.98 0 3 C-2.04984194 4.65260925 -4.06470595 6.10970358 -6.25 7.5625 C-12.26711563 11.69210422 -17.85899453 16.1014613 -23.37890625 20.87109375 C-26 23 -26 23 -28.71484375 24.59765625 C-31.26430195 25.94250099 -31.26430195 25.94250099 -33 29 C-30.75256794 31.14835964 -30.75256794 31.14835964 -28 33 C-25.73575649 32.87436418 -25.73575649 32.87436418 -24 32 C-24 31.34 -24 30.68 -24 30 C-22.5390625 28.7109375 -22.5390625 28.7109375 -20.625 27.375 C-19.99851562 26.92898437 -19.37203125 26.48296875 -18.7265625 26.0234375 C-17 25 -17 25 -15 25 C-15 24.34 -15 23.68 -15 23 C-13.28515625 21.78125 -13.28515625 21.78125 -11.0625 20.5 C-7.94567974 18.81545121 -7.94567974 18.81545121 -6 16 C-3.68488861 14.61093317 -1.36734437 13.29297001 1 12 C2.31406127 11.25273885 3.62664608 10.50287333 4.9375 9.75 C5.948125 9.1725 6.95875 8.595 8 8 C8.495 8.99 8.495 8.99 9 10 C8.40316406 10.35449219 7.80632812 10.70898438 7.19140625 11.07421875 C-5.37047574 18.78307055 -17.27456118 27.8856973 -28 38 C-28.556875 37.278125 -29.11375 36.55625 -29.6875 35.8125 C-31.97909334 33.02542701 -34.41459857 30.51358472 -37 28 C-30.89465243 22.40596952 -24.58288813 17.24950985 -17.9375 12.3125 C-17.09123047 11.67505859 -16.24496094 11.03761719 -15.37304688 10.38085938 C-10.38599145 6.65498682 -5.32730783 3.22101965 0 0 Z " fill="#2969AE" transform="translate(93,43)"/>
<path d="M0 0 C2.31 0 4.62 0 7 0 C7.24234375 0.55429688 7.4846875 1.10859375 7.734375 1.6796875 C8.06953125 2.40414062 8.4046875 3.12859375 8.75 3.875 C9.23726562 4.95394531 9.23726562 4.95394531 9.734375 6.0546875 C11.21929686 8.3370674 12.50415408 9.00375898 15 10 C12.20826945 10.02690104 9.41679652 10.04679053 6.625 10.0625 C5.43390625 10.07506836 5.43390625 10.07506836 4.21875 10.08789062 C-1.7734375 10.11328125 -1.7734375 10.11328125 -4 9 C-4 19.23 -4 29.46 -4 40 C-3.34 40.33 -2.68 40.66 -2 41 C-2.99 41 -3.98 41 -5 41 C-5 29.12 -5 17.24 -5 5 C-7.29308963 3.85345518 -8.79909656 3.80270883 -11.3515625 3.68359375 C-12.62773437 3.62075195 -12.62773437 3.62075195 -13.9296875 3.55664062 C-14.81914062 3.51732422 -15.70859375 3.47800781 -16.625 3.4375 C-17.5221875 3.39431641 -18.419375 3.35113281 -19.34375 3.30664062 C-21.56234283 3.20043139 -23.7810488 3.09838806 -26 3 C-26 2.67 -26 2.34 -26 2 C-17.75 2 -9.5 2 -1 2 C-0.67 1.34 -0.34 0.68 0 0 Z " fill="#DCDFE4" transform="translate(211,193)"/>
<path d="M0 0 C0.33 0 0.66 0 1 0 C1 9.57 1 19.14 1 29 C-5.93 28.67 -12.86 28.34 -20 28 C-19.01 26.515 -19.01 26.515 -18 25 C-14.9609375 24.70703125 -14.9609375 24.70703125 -11.375 24.8125 C-10.18648437 24.83957031 -8.99796875 24.86664063 -7.7734375 24.89453125 C-6.85820313 24.92933594 -5.94296875 24.96414062 -5 25 C-5.0721875 24.01257813 -5.144375 23.02515625 -5.21875 22.0078125 C-5.3115625 20.72648437 -5.404375 19.44515625 -5.5 18.125 C-5.5928125 16.84882813 -5.685625 15.57265625 -5.78125 14.2578125 C-5.89876804 12.50763316 -6 10.75412035 -6 9 C-9.63 9 -13.26 9 -17 9 C-17 8.67 -17 8.34 -17 8 C-13.04 8 -9.08 8 -5 8 C-5 6.02 -5 4.04 -5 2 C-4.01 3.485 -4.01 3.485 -3 5 C-2.34 5 -1.68 5 -1 5 C-0.67 3.35 -0.34 1.7 0 0 Z " fill="#052175" transform="translate(63,219)"/>
<path d="M0 0 C1.32 0 2.64 0 4 0 C4 9.57 4 19.14 4 29 C2.02 29 0.04 29 -2 29 C-2.33 29.99 -2.66 30.98 -3 32 C-4.1446738 28.56597859 -3.87250961 28.20461185 -2.625 25 C0.00166026 16.96409876 -0.24944132 8.3777877 0 0 Z " fill="#F0F0F2" transform="translate(102,204)"/>
<path d="M0 0 C0.66 0 1.32 0 2 0 C2 2.31 2 4.62 2 7 C5.3 7 8.6 7 12 7 C12 10.3 12 13.6 12 17 C7.72412002 17.08384078 4.23641013 16.84728203 0 16 C0 10.72 0 5.44 0 0 Z " fill="#FCFCFC" transform="translate(207,202)"/>
<path d="M0 0 C1.98 0 3.96 0 6 0 C6.50688605 2.54046458 7.00566874 5.08208876 7.5 7.625 C7.64308594 8.33785156 7.78617187 9.05070313 7.93359375 9.78515625 C8.73049426 13.92144935 9.16034056 17.76433679 9 22 C7.02 22 5.04 22 3 22 C2.01 14.74 1.02 7.48 0 0 Z " fill="#22316B" transform="translate(114,209)"/>
<path d="M0 0 C1.60875 0.185625 1.60875 0.185625 3.25 0.375 C1.94933317 3.89738004 0.41259119 6.88994129 -1.6875 10 C-2.19152344 10.75539062 -2.69554687 11.51078125 -3.21484375 12.2890625 C-6.04218188 16.13078912 -6.04218188 16.13078912 -7.75 17.375 C-10.9375 17.5625 -10.9375 17.5625 -13.75 17.375 C-12.29355546 14.64659389 -10.82209175 11.92860397 -9.32421875 9.22265625 C-8.42634434 7.59846159 -7.54325142 5.96537453 -6.70703125 4.30859375 C-4.77938877 0.81526785 -4.08243945 0.40824395 0 0 Z " fill="#162C72" transform="translate(24.75,193.625)"/>
<path d="M0 0 C1.65 0 3.3 0 5 0 C5.45755719 7.62595318 3.74536299 14.6029854 2 22 C0.02 22 -1.96 22 -4 22 C-2.68 14.74 -1.36 7.48 0 0 Z " fill="#182D6F" transform="translate(88,209)"/>
<path d="M0 0 C0.66 0.33 1.32 0.66 2 1 C4.32273159 1.15520557 6.64959313 1.25019167 8.9765625 1.31640625 C9.66181 1.33718735 10.3470575 1.35796844 11.05307007 1.37937927 C13.24361069 1.44480185 15.43427189 1.50372554 17.625 1.5625 C19.1093875 1.60569218 20.59376278 1.6493067 22.078125 1.69335938 C25.71862084 1.80047553 29.35925251 1.90176362 33 2 C33 2.99 33 3.98 33 5 C21.12 5 9.24 5 -3 5 C-3 3.68 -3 2.36 -3 1 C-2.01 0.67 -1.02 0.34 0 0 Z " fill="#01287E" transform="translate(89,242)"/>
<path d="M0 0 C0.33 0 0.66 0 1 0 C1.33 8.91 1.66 17.82 2 27 C2.66 27 3.32 27 4 27 C4 28.98 4 30.96 4 33 C5.32 33 6.64 33 8 33 C8 34.32 8 35.64 8 37 C7.01 37.66 6.02 38.32 5 39 C4.505 39.495 4.505 39.495 4 40 C1.66702567 40.04092937 -0.66705225 40.04241723 -3 40 C-3 38.35 -3 36.7 -3 35 C-2.01 34.505 -2.01 34.505 -1 34 C-0.67 22.78 -0.34 11.56 0 0 Z " fill="#0F256E" transform="translate(188,203)"/>
<path d="M0 0 C0.66 0.33 1.32 0.66 2 1 C2.625 3.5625 2.625 3.5625 3 6 C3.99 5.67 4.98 5.34 6 5 C5.51947285 10.64619401 4.17262158 17.82737842 0 22 C-1.99958364 22.04080783 -4.00045254 22.04254356 -6 22 C-4.97767269 18.77573695 -3.88261884 15.75115194 -2.4375 12.6875 C-0.77277841 8.41712723 -0.29856805 4.54029349 0 0 Z " fill="#17286A" transform="translate(95,218)"/>
<path d="M0 0 C1.65 0 3.3 0 5 0 C5 3.3 5 6.6 5 10 C5.66 10.33 6.32 10.66 7 11 C6.01 11.495 6.01 11.495 5 12 C4.31270746 14.11846285 4.31270746 14.11846285 3.875 16.5625 C3.70742187 17.38878906 3.53984375 18.21507812 3.3671875 19.06640625 C3.24601563 19.70449219 3.12484375 20.34257812 3 21 C1.35 21 -0.3 21 -2 21 C-1.01 10.605 -1.01 10.605 0 0 Z " fill="#0D2369" transform="translate(130,197)"/>
<path d="M0 0 C2.64 0 5.28 0 8 0 C8.08685287 3.29150125 8.14033895 6.5827096 8.1875 9.875 C8.22520508 11.28072266 8.22520508 11.28072266 8.26367188 12.71484375 C8.27817383 14.05869141 8.27817383 14.05869141 8.29296875 15.4296875 C8.31653442 16.67081299 8.31653442 16.67081299 8.34057617 17.93701172 C8.22818604 18.61779785 8.1157959 19.29858398 8 20 C7.01 20.66 6.02 21.32 5 22 C5.33 20.68 5.66 19.36 6 18 C1.85906302 17.79029441 1.85906302 17.79029441 -2 19 C-2.66 18.34 -3.32 17.68 -4 17 C-2.6696875 15.5459375 -2.6696875 15.5459375 -1.3125 14.0625 C2.14494929 10.05481531 4.59426112 5.69438427 7 1 C4.69 1 2.38 1 0 1 C0 0.67 0 0.34 0 0 Z " fill="#E9EAED" transform="translate(21,193)"/>
<path d="M0 0 C4.89219216 0.80378817 9.48934534 2.40069039 14.1875 3.9375 C20.75296323 6.0543402 27.17892514 7.88179101 34 9 C33.67 9.66 33.34 10.32 33 11 C26.85845775 10.41509121 20.99320151 9.45933748 15 8 C15 7.34 15 6.68 15 6 C13.9275 5.855625 12.855 5.71125 11.75 5.5625 C8 5 8 5 5.875 4.125 C5.25625 4.08375 4.6375 4.0425 4 4 C1.22877725 6.35426499 1.22877725 6.35426499 -1 9 C-0.34 10.32 0.32 11.64 1 13 C-0.98 12.34 -2.96 11.68 -5 11 C-4.360625 9.9275 -3.72125 8.855 -3.0625 7.75 C-1.59398727 5.19177818 -0.47145458 2.94659114 0 0 Z " fill="#2388B6" transform="translate(142,150)"/>
<path d="M0 0 C0.33 0 0.66 0 1 0 C1 10.56 1 21.12 1 32 C-0.98 32 -2.96 32 -5 32 C-4.50176743 27.34982935 -3.75579073 23.08550528 -2.54296875 18.5625 C-1.24957435 12.45842285 -0.70666024 6.1945536 0 0 Z " fill="#EDEDEF" transform="translate(170,210)"/>
<path d="M0 0 C2.64 0 5.28 0 8 0 C11.42857143 8.42857143 11.42857143 8.42857143 11 13 C9.02 13 7.04 13 5 13 C4.16209211 11.21046815 3.32980604 9.41830305 2.5 7.625 C1.80390625 6.12839844 1.80390625 6.12839844 1.09375 4.6015625 C0 2 0 2 0 0 Z " fill="#253673" transform="translate(72,194)"/>
<path d="M0 0 C0.66 0.99 1.32 1.98 2 3 C1.13671875 6.1015625 1.13671875 6.1015625 -0.3125 9.625 C-0.78300781 10.79289063 -1.25351563 11.96078125 -1.73828125 13.1640625 C-3 16 -3 16 -4 17 C-5.66617115 17.04063832 -7.33388095 17.042721 -9 17 C-8.34426494 13.52772675 -7.54335352 10.14487124 -6.5625 6.75 C-6.31628906 5.87859375 -6.07007813 5.0071875 -5.81640625 4.109375 C-5 2 -5 2 -3 1 C-2.01 1.99 -1.02 2.98 0 4 C0 2.68 0 1.36 0 0 Z " fill="#1D2D69" transform="translate(155,232)"/>
<path d="M0 0 C8.25 0 16.5 0 25 0 C25 1.98 25 3.96 25 6 C24.01 6 23.02 6 22 6 C22 16.56 22 27.12 22 38 C22.66 38.33 23.32 38.66 24 39 C23.01 39 22.02 39 21 39 C21 27.12 21 15.24 21 3 C18.70691037 1.85345518 17.20090344 1.80270883 14.6484375 1.68359375 C13.37226563 1.62075195 13.37226563 1.62075195 12.0703125 1.55664062 C11.18085938 1.51732422 10.29140625 1.47800781 9.375 1.4375 C8.4778125 1.39431641 7.580625 1.35113281 6.65625 1.30664062 C4.43765717 1.20043139 2.2189512 1.09838806 0 1 C0 0.67 0 0.34 0 0 Z " fill="#4F5B8E" transform="translate(185,195)"/>
<path d="M0 0 C1.11375 0.7115625 1.11375 0.7115625 2.25 1.4375 C7.06984215 4.17604668 11.58653728 4.19390482 17.046875 4.31640625 C17.81807678 4.33718735 18.58927856 4.35796844 19.3838501 4.37937927 C21.83914572 4.44458572 24.29454521 4.50362484 26.75 4.5625 C28.41797935 4.60571274 30.08594832 4.6493279 31.75390625 4.69335938 C35.83583196 4.80023736 39.91786182 4.90158566 44 5 C44 5.33 44 5.66 44 6 C26.18 6 8.36 6 -10 6 C-10 5.67 -10 5.34 -10 5 C-8.72125 4.9175 -7.4425 4.835 -6.125 4.75 C-3.94666582 4.54130069 -3.94666582 4.54130069 -2 4 C-0.4100567 2.07935207 -0.4100567 2.07935207 0 0 Z " fill="#F1F1F2" transform="translate(80,244)"/>
<path d="M0 0 C0.33 0 0.66 0 1 0 C1.33 10.89 1.66 21.78 2 33 C2.99 31.68 3.98 30.36 5 29 C6.42857143 37.57142857 6.42857143 37.57142857 4 41 C2.68 41 1.36 41 0 41 C-1.14843858 36.52611636 -1.04131966 32.21233628 -0.87890625 27.63671875 C-0.84348976 26.44874443 -0.84348976 26.44874443 -0.80735779 25.23677063 C-0.73110306 22.72014719 -0.64691584 20.20386159 -0.5625 17.6875 C-0.50924101 15.9759277 -0.4565009 14.26433917 -0.40429688 12.55273438 C-0.27553999 8.36827776 -0.13967078 4.18410597 0 0 Z " fill="#0B1D6F" transform="translate(30,197)"/>
<path d="M0 0 C0 0.99 0 1.98 0 3 C-2.04978627 4.65256437 -4.06480304 6.10967614 -6.25 7.5625 C-13.19241399 12.33061205 -19.61790278 17.50625331 -26 23 C-26.66 22.67 -27.32 22.34 -28 22 C-28 21.34 -28 20.68 -28 20 C-26.29101562 18.4753418 -26.29101562 18.4753418 -23.90625 16.69921875 C-22.606875 15.72758789 -22.606875 15.72758789 -21.28125 14.73632812 C-20.3634375 14.06021484 -19.445625 13.38410156 -18.5 12.6875 C-17.1696875 11.69073242 -17.1696875 11.69073242 -15.8125 10.67382812 C-10.67711711 6.85627511 -5.47732404 3.30815015 0 0 Z " fill="#1F76AF" transform="translate(93,43)"/>
<path d="M0 0 C-0.497626 6.27008755 -1.31424515 12.24297525 -4 18 C-4.66 18.33 -5.32 18.66 -6 19 C-6 13.39 -6 7.78 -6 2 C-2 0 -2 0 0 0 Z " fill="#FAFBFB" transform="translate(151,228)"/>
<path d="M0 0 C2.875 -0.125 2.875 -0.125 6 0 C8 2 8 2 8.046875 5.84375 C7.95898353 7.39649934 7.85953862 8.94862747 7.75 10.5 C7.71003906 11.28503906 7.67007813 12.07007813 7.62890625 12.87890625 C7.25672505 18.74327495 7.25672505 18.74327495 5 21 C4.34 20.67 3.68 20.34 3 20 C3.66 13.73 4.32 7.46 5 1 C3.35 1 1.7 1 0 1 C0 0.67 0 0.34 0 0 Z " fill="#D5D5DB" transform="translate(88,208)"/>
<path d="M0 0 C0.66 0.66 1.32 1.32 2 2 C1.03513672 2.58394531 1.03513672 2.58394531 0.05078125 3.1796875 C-7.70326221 7.98033637 -14.85523125 13.35461038 -22 19 C-22.66 18.34 -23.32 17.68 -24 17 C-23.34 17 -22.68 17 -22 17 C-22 16.34 -22 15.68 -22 15 C-20.28515625 13.78125 -20.28515625 13.78125 -18.0625 12.5 C-14.94567974 10.81545121 -14.94567974 10.81545121 -13 8 C-11.31783862 7.0104933 -9.63220706 6.02591338 -7.921875 5.0859375 C-5.17636007 3.53460996 -2.60339828 1.77793053 0 0 Z " fill="#2276B7" transform="translate(100,51)"/>
<path d="M0 0 C0.99 0 1.98 0 3 0 C4.125 1.6875 4.125 1.6875 5 4 C3.7 8.3 3.7 8.3 2 10 C0.00041636 10.04080783 -2.00045254 10.04254356 -4 10 C-2.8905928 6.51329166 -1.73662334 3.22515763 0 0 Z " fill="#203166" transform="translate(93,230)"/>
<path d="M0 0 C1.98 0 3.96 0 6 0 C5.88529863 1.75070517 5.75780972 3.50057536 5.625 5.25 C5.55539063 6.22453125 5.48578125 7.1990625 5.4140625 8.203125 C5.01534751 10.89633189 4.36492937 12.66963279 3 15 C2.49733206 12.87562952 1.9979439 10.75048274 1.5 8.625 C1.2215625 7.44164062 0.943125 6.25828125 0.65625 5.0390625 C0 2 0 2 0 0 Z " fill="#1A2A6E" transform="translate(114,209)"/>
<path d="M0 0 C0.33 0.66 0.66 1.32 1 2 C-3.95 2 -8.9 2 -14 2 C-14 3.65 -14 5.3 -14 7 C-10.7 7 -7.4 7 -4 7 C-4 7.33 -4 7.66 -4 8 C-7.96 8 -11.92 8 -16 8 C-16 8.99 -16 9.98 -16 11 C-18.31 11 -20.62 11 -23 11 C-23 10.67 -23 10.34 -23 10 C-21.02 10 -19.04 10 -17 10 C-17.33 8.02 -17.66 6.04 -18 4 C-17.34 4 -16.68 4 -16 4 C-16 3.01 -16 2.02 -16 1 C-8.08 0.505 -8.08 0.505 0 0 Z " fill="#AAADC0" transform="translate(100,197)"/>
<path d="M0 0 C2 1 2 1 2 1 Z M10.5625 1.3125 C12.07553711 1.4043457 12.07553711 1.4043457 13.61914062 1.49804688 C16.08088239 1.64971817 18.54040017 1.81729784 21 2 C21 2.33 21 2.66 21 3 C19.02580078 3.07347656 19.02580078 3.07347656 17.01171875 3.1484375 C3.4062703 3.70694319 3.4062703 3.70694319 -10 6 C-10 5.34 -10 4.68 -10 4 C-2.95209989 0.98985607 2.98866353 0.74609132 10.5625 1.3125 Z " fill="#33C6B9" transform="translate(180,16)"/>
<path d="M0 0 C1.65 0.33 3.3 0.66 5 1 C4.56802365 5.7517398 3.67230705 7.92000054 0 11 C-0.33 9.35 -0.66 7.7 -1 6 C-1.66 6 -2.32 6 -3 6 C-3 6.66 -3 7.32 -3 8 C-3.66 7.67 -4.32 7.34 -5 7 C-3.35 4.69 -1.7 2.38 0 0 Z " fill="#1AB39C" transform="translate(98,65)"/>
<path d="M0 0 C0.33 0 0.66 0 1 0 C1.625 3.375 1.625 3.375 2 7 C1.34 7.66 0.68 8.32 0 9 C-0.16681109 12.08347826 -0.16681109 12.08347826 0 15 C1.65 14.34 3.3 13.68 5 13 C3.88671875 14.984375 3.88671875 14.984375 2 17 C-0.91796875 17.390625 -0.91796875 17.390625 -4.1875 17.25 C-5.27417969 17.21390625 -6.36085937 17.1778125 -7.48046875 17.140625 C-8.72763672 17.07101563 -8.72763672 17.07101563 -10 17 C-10 16.67 -10 16.34 -10 16 C-7.69 16 -5.38 16 -3 16 C-3 12.7 -3 9.4 -3 6 C-2.01 6 -1.02 6 0 6 C0 4.02 0 2.04 0 0 Z " fill="#E1E2E5" transform="translate(210,233)"/>
<path d="M0 0 C4.29 0 8.58 0 13 0 C13 1.32 13 2.64 13 4 C8.71 4 4.42 4 0 4 C0 2.68 0 1.36 0 0 Z " fill="#F2F2F3" transform="translate(45,221)"/>
<path d="M0 0 C1.98 0 3.96 0 6 0 C9 5.75 9 5.75 9 8 C7.02 8 5.04 8 3 8 C0 2.25 0 2.25 0 0 Z " fill="#212F6E" transform="translate(212,194)"/>
<path d="M0 0 C2.68800977 0.62286841 5.3753992 1.24823207 8.0625 1.875 C8.81466797 2.04902344 9.56683594 2.22304687 10.34179688 2.40234375 C12.56457316 2.92195379 14.78315752 3.45565255 17 4 C17.68819824 4.16790039 18.37639648 4.33580078 19.08544922 4.50878906 C20.74182199 4.94140163 22.37444141 5.46307948 24 6 C24.33 6.66 24.66 7.32 25 8 C16.04586479 6.75363686 7.63990827 4.63287146 -1 2 C-0.67 1.34 -0.34 0.68 0 0 Z " fill="#2192C4" transform="translate(155,165)"/>
<path d="M0 0 C1.98 0 3.96 0 6 0 C6 2.64 6 5.28 6 8 C4.02 8.33 2.04 8.66 0 9 C0 6.03 0 3.06 0 0 Z " fill="#F5F5F6" transform="translate(194,227)"/>
<path d="M0 0 C3.96 0 7.92 0 12 0 C12 1.32 12 2.64 12 4 C8.04 4 4.08 4 0 4 C0 2.68 0 1.36 0 0 Z " fill="#F7F7F8" transform="translate(45,239)"/>
<path d="M0 0 C3.96 0 7.92 0 12 0 C12 1.32 12 2.64 12 4 C8.04 4 4.08 4 0 4 C0 2.68 0 1.36 0 0 Z " fill="#FBFBFB" transform="translate(45,230)"/>
<path d="M0 0 C1.98 0 3.96 0 6 0 C6 2.64 6 5.28 6 8 C4.02 8 2.04 8 0 8 C0 5.36 0 2.72 0 0 Z " fill="#E6E6EB" transform="translate(194,214)"/>
<path d="M0 0 C1.98 0 3.96 0 6 0 C6 2.64 6 5.28 6 8 C4.02 8 2.04 8 0 8 C0 5.36 0 2.72 0 0 Z " fill="#F2F3F4" transform="translate(194,201)"/>
<path d="M0 0 C2.62187494 1.04874998 3.79371361 1.64931313 5.25 4.125 C5.4975 4.74375 5.745 5.3625 6 6 C5.38125 5.67 4.7625 5.34 4.125 5 C2.08981656 3.85806765 2.08981656 3.85806765 0 4 C-2.6120831 5.88069983 -2.99468505 6.97535795 -3.6875 10.1875 C-3.790625 11.115625 -3.89375 12.04375 -4 13 C-6 11.1875 -6 11.1875 -8 9 C-8 8.01 -8 7.02 -8 6 C-6.04690112 4.59886384 -4.04291182 3.26660533 -2 2 C-1.34 1.34 -0.68 0.68 0 0 Z " fill="#29B1A3" transform="translate(218,102)"/>
<path d="M0 0 C0.825 0.185625 1.65 0.37125 2.5 0.5625 C5.84907523 0.9811344 8.58489262 0.69140321 11.90234375 0.19921875 C15.42805952 -0.13562576 18.52478773 0.329345 22 1 C22.33 1.66 22.66 2.32 23 3 C15.74 3 8.48 3 1 3 C0.67 2.01 0.34 1.02 0 0 Z " fill="#18A2C0" transform="translate(181,171)"/>
<path d="M0 0 C0.99 0 1.98 0 3 0 C3.05418326 2.08304538 3.09287551 4.16649768 3.125 6.25 C3.14820313 7.41015625 3.17140625 8.5703125 3.1953125 9.765625 C3.0103949 12.82786046 2.60823023 14.44202751 1 17 C0.34 16.34 -0.32 15.68 -1 15 C-0.98252112 12.40730017 -0.86231408 9.9474846 -0.625 7.375 C-0.56828125 6.66859375 -0.5115625 5.9621875 -0.453125 5.234375 C-0.31159079 3.48878639 -0.15702613 1.74426327 0 0 Z " fill="#E1E2E4" transform="translate(161,205)"/>
<path d="M0 0 C-5.49481317 5.49481317 -14.05920784 8.59508309 -21 12 C-19.64898569 8.77704204 -18.44425059 7.3218513 -15.41015625 5.60546875 C-14.70826172 5.20779297 -14.00636719 4.81011719 -13.28320312 4.40039062 C-12.55037109 4.00013672 -11.81753906 3.59988281 -11.0625 3.1875 C-10.33353516 2.76791016 -9.60457031 2.34832031 -8.85351562 1.91601562 C-3.38294396 -1.12764799 -3.38294396 -1.12764799 0 0 Z " fill="#25A0BE" transform="translate(125,39)"/>
<path d="M0 0 C0.2475 0.61875 0.495 1.2375 0.75 1.875 C1.81105913 4.16137472 1.81105913 4.16137472 4.0625 4.875 C4.701875 5.24625 5.34125 5.6175 6 6 C6.40632091 7.98645776 6.72949547 9.99053778 7 12 C7.515625 13.03125 8.03125 14.0625 8.5625 15.125 C10 18 10 18 10 22 C9.34 22 8.68 22 8 22 C7.63648438 21.03900391 7.63648438 21.03900391 7.265625 20.05859375 C5.66264952 15.92168395 4.09101286 11.96656361 1.75 8.1875 C0.01710272 5.03115139 -0.42596811 3.51423694 0 0 Z " fill="#20B1A3" transform="translate(215,113)"/>
<path d="M0 0 C3.63 0 7.26 0 11 0 C11 1.32 11 2.64 11 4 C7.37 4 3.74 4 0 4 C0 2.68 0 1.36 0 0 Z " fill="#F7F8F9" transform="translate(36,202)"/>
<path d="M0 0 C1.66666667 0 3.33333333 0 5 0 C6 3 6 3 4.875 5.6875 C3 8 3 8 0.3125 8.3125 C-0.450625 8.209375 -1.21375 8.10625 -2 8 C-1.47731534 5.23723823 -0.89130413 2.6739124 0 0 Z " fill="#27376E" transform="translate(148,241)"/>
<path d="M0 0 C0.66 0 1.32 0 2 0 C1.84660156 0.67417969 1.69320312 1.34835938 1.53515625 2.04296875 C0.91516143 5.46877952 0.6647426 8.83893447 0.4375 12.3125 C0.35371094 13.56675781 0.26992187 14.82101563 0.18359375 16.11328125 C0.12300781 17.06589844 0.06242187 18.01851562 0 19 C-0.66 18.67 -1.32 18.34 -2 18 C-2 12.72 -2 7.44 -2 2 C-1.34 2 -0.68 2 0 2 C0 1.34 0 0.68 0 0 Z " fill="#27BBA0" transform="translate(96,76)"/>
<path d="M0 0 C2.475 0.99 2.475 0.99 5 2 C4.67 4.31 4.34 6.62 4 9 C2.02 9 0.04 9 -2 9 C-1.34 6.03 -0.68 3.06 0 0 Z " fill="#182861" transform="translate(86,222)"/>
<path d="M0 0 C2.31 0 4.62 0 7 0 C6.67 1.65 6.34 3.3 6 5 C3.69 5.66 1.38 6.32 -1 7 C-0.67 4.69 -0.34 2.38 0 0 Z " fill="#152765" transform="translate(228,194)"/>
<path d="M0 0 C4.95 0 9.9 0 15 0 C14.67 1.65 14.34 3.3 14 5 C11.03 5 8.06 5 5 5 C5 4.67 5 4.34 5 4 C6.65 4 8.3 4 10 4 C10 3.34 10 2.68 10 2 C6.7 1.67 3.4 1.34 0 1 C0 0.67 0 0.34 0 0 Z " fill="#0D1B71" transform="translate(108,199)"/>
<path d="M0 0 C8.91 1.98 8.91 1.98 18 4 C17.67 4.66 17.34 5.32 17 6 C10.85845775 5.41509121 4.99320151 4.45933748 -1 3 C-0.67 2.01 -0.34 1.02 0 0 Z " fill="#2999BE" transform="translate(158,155)"/>
<path d="M0 0 C2.31 0.33 4.62 0.66 7 1 C7.33 1.99 7.66 2.98 8 4 C8.66 4.66 9.32 5.32 10 6 C6.7 6 3.4 6 0 6 C0 4.02 0 2.04 0 0 Z " fill="#2D4483" transform="translate(209,203)"/>
<path d="M0 0 C2 2 2 2 2.375 4.5 C3.23047431 9.29065616 5.10342486 13.53643246 7 18 C6.34 18.33 5.68 18.66 5 19 C3.9623658 16.77735746 2.94503821 14.54874335 1.9375 12.3125 C1.64294922 11.68666016 1.34839844 11.06082031 1.04492188 10.41601562 C-0.68010253 6.53978432 -1.36305016 4.07357275 0 0 Z " fill="#21A3BA" transform="translate(14,45)"/>
<path d="M0 0 C6.6 0 13.2 0 20 0 C19.67 0.66 19.34 1.32 19 2 C12.43753343 3.61457511 6.39753713 2.86981158 0 1 C0 0.67 0 0.34 0 0 Z " fill="#34C1AC" transform="translate(184,6)"/>
<path d="M0 0 C0 1.98 0 3.96 0 6 C-2.64 5.67 -5.28 5.34 -8 5 C-7.67 4.34 -7.34 3.68 -7 3 C-7.99 2.34 -8.98 1.68 -10 1 C-3.375 0 -3.375 0 0 0 Z " fill="#10236D" transform="translate(65,194)"/>
<path d="M0 0 C-1.42893505 3.58770251 -3.01508697 4.96510596 -6.375 6.8125 C-7.14585938 7.25207031 -7.91671875 7.69164062 -8.7109375 8.14453125 C-11.31101605 9.11623296 -12.43992191 8.95272312 -15 8 C-12.8782637 6.66121428 -10.75294812 5.32884524 -8.625 4 C-8.02171875 3.6184375 -7.4184375 3.236875 -6.796875 2.84375 C-2.2265625 0 -2.2265625 0 0 0 Z " fill="#2A9BBC" transform="translate(109,34)"/>
<path d="M0 0 C0.33 0.66 0.66 1.32 1 2 C1.66 2 2.32 2 3 2 C1.25 9.75 1.25 9.75 -1 12 C-1.66 11.67 -2.32 11.34 -3 11 C-2.01 7.37 -1.02 3.74 0 0 Z " fill="#E0E0E3" transform="translate(156,235)"/>
<path d="M0 0 C3.24208567 0.35049575 4.61527704 0.56221181 6.8125 3.0625 C7.204375 3.701875 7.59625 4.34125 8 5 C5.36 5.33 2.72 5.66 0 6 C0 4.02 0 2.04 0 0 Z " fill="#15276D" transform="translate(128,227)"/>
<path d="M0 0 C0 2.97 0 5.94 0 9 C-1.32 9.33 -2.64 9.66 -4 10 C-4.75 7.25 -4.75 7.25 -5 4 C-1.84210526 0 -1.84210526 0 0 0 Z " fill="#0F246C" transform="translate(92,215)"/>
<path d="M0 0 C0.66 0.33 1.32 0.66 2 1 C0.02 3.31 -1.96 5.62 -4 8 C-2.68 9.65 -1.36 11.3 0 13 C-3.36591866 11.55746343 -5.51047079 9.66735273 -8 7 C-5.36 4.69 -2.72 2.38 0 0 Z " fill="#1F5FA7" transform="translate(64,64)"/>
<path d="M0 0 C0.33 1.32 0.66 2.64 1 4 C-2.63 4 -6.26 4 -10 4 C-10 3.34 -10 2.68 -10 2 C-6.38026598 0.68373308 -3.90432869 0 0 0 Z " fill="#082175" transform="translate(64,207)"/>
<path d="M0 0 C0.33 0.66 0.66 1.32 1 2 C-0.21484375 4.6015625 -0.21484375 4.6015625 -1.9375 7.625 C-2.50339844 8.62789062 -3.06929687 9.63078125 -3.65234375 10.6640625 C-4.09707031 11.43492188 -4.54179687 12.20578125 -5 13 C-5.66 12.67 -6.32 12.34 -7 12 C-6.625 9.5625 -6.625 9.5625 -6 7 C-5.34 6.67 -4.68 6.34 -4 6 C-2.6296945 4.02514795 -1.29327628 2.02613283 0 0 Z " fill="#25BEA7" transform="translate(232,55)"/>
<path d="M0 0 C2.625 0.375 2.625 0.375 5 1 C4.67 2.65 4.34 4.3 4 6 C3.34 5.01 2.68 4.02 2 3 C0.68 3.99 -0.64 4.98 -2 6 C-2 2 -2 2 0 0 Z " fill="#25B4A0" transform="translate(107,73)"/>
<path d="M0 0 C5.28 0 10.56 0 16 0 C16 0.33 16 0.66 16 1 C14.02 1 12.04 1 10 1 C10 1.66 10 2.32 10 3 C8.02 3 6.04 3 4 3 C4 2.34 4 1.68 4 1 C2.68 0.67 1.36 0.34 0 0 Z " fill="#082F84" transform="translate(37,197)"/>
<path d="M0 0 C2.4375 0.375 2.4375 0.375 5 1 C5.33 1.66 5.66 2.32 6 3 C2.04 3.99 -1.92 4.98 -6 6 C-6 5.34 -6 4.68 -6 4 C-4.7934375 3.566875 -4.7934375 3.566875 -3.5625 3.125 C-0.8673532 2.26737432 -0.8673532 2.26737432 0 0 Z " fill="#22C3B7" transform="translate(156,22)"/>
<path d="M0 0 C0.66 0.33 1.32 0.66 2 1 C-0.75 6.75 -0.75 6.75 -3 9 C-5.125 8.625 -5.125 8.625 -7 8 C-7.33 6.68 -7.66 5.36 -8 4 C-7.01 4.495 -7.01 4.495 -6 5 C-6 5.66 -6 6.32 -6 7 C-5.01 7 -4.02 7 -3 7 C-2.690625 6.21625 -2.38125 5.4325 -2.0625 4.625 C-1 2 -1 2 0 0 Z " fill="#22B2A3" transform="translate(145,97)"/>
<path d="M0 0 C0.99 0.33 1.98 0.66 3 1 C2.67 2.32 2.34 3.64 2 5 C0.68 5.33 -0.64 5.66 -2 6 C-2.66 4.68 -3.32 3.36 -4 2 C-2.68 2 -1.36 2 0 2 C0 1.34 0 0.68 0 0 Z " fill="#24AF9C" transform="translate(109,100)"/>
<path d="M0 0 C0.6875 1.6875 0.6875 1.6875 1 4 C-0.25 6.75 -0.25 6.75 -2 9 C-2.99 9 -3.98 9 -5 9 C-5.33 8.01 -5.66 7.02 -6 6 C-4 4 -2 2 0 0 Z " fill="#03B09A" transform="translate(144,95)"/>
<path d="M0 0 C3.08089673 2.77280706 4.68775452 5.06326356 6 9 C3.525 10.485 3.525 10.485 1 12 C1.20625 11.071875 1.4125 10.14375 1.625 9.1875 C2.36692966 5.84826598 2.36692966 5.84826598 0 3 C0 2.01 0 1.02 0 0 Z " fill="#229ABA" transform="translate(32,62)"/>
<path d="M0 0 C-6.93 2.97 -6.93 2.97 -14 6 C-11.72966781 1.45933562 -11.72966781 1.45933562 -8.125 0.1875 C-7.44695312 -0.06644531 -6.76890625 -0.32039063 -6.0703125 -0.58203125 C-4 -1 -4 -1 0 0 Z " fill="#1AB6B1" transform="translate(148,29)"/>
<path d="M0 0 C1.4606285 2.64738916 2 3.89448334 2 7 C0.35 7 -1.3 7 -3 7 C-2.625 4.0625 -2.625 4.0625 -2 1 C-1.34 0.67 -0.68 0.34 0 0 Z " fill="#0D1C55" transform="translate(131,211)"/>
<path d="M0 0 C1.98 1.65 3.96 3.3 6 5 C5.34 5.66 4.68 6.32 4 7 C3.34 6.34 2.68 5.68 2 5 C-0.08333333 5.16666667 -0.08333333 5.16666667 -2 6 C-2.33 6.66 -2.66 7.32 -3 8 C-3.66 7.67 -4.32 7.34 -5 7 C-3.35 4.69 -1.7 2.38 0 0 Z " fill="#2A428E" transform="translate(29,101)"/>
<path d="M0 0 C1.32 0 2.64 0 4 0 C4 1.98 4 3.96 4 6 C2.68 6 1.36 6 0 6 C0 4.02 0 2.04 0 0 Z " fill="#FEFEFD" transform="translate(195,215)"/>
<path d="M0 0 C0.66 0.66 1.32 1.32 2 2 C-1.63 4.31 -5.26 6.62 -9 9 C-9 8.01 -9 7.02 -9 6 C-7.03125 4.39453125 -7.03125 4.39453125 -4.5 2.8125 C-3.6646875 2.28269531 -2.829375 1.75289062 -1.96875 1.20703125 C-0.99421875 0.60955078 -0.99421875 0.60955078 0 0 Z " fill="#238BC0" transform="translate(100,51)"/>
<path d="M0 0 C0.66 0 1.32 0 2 0 C3.32 3.96 4.64 7.92 6 12 C5.34 12 4.68 12 4 12 C4 11.01 4 10.02 4 9 C3.34 9 2.68 9 2 9 C1.34 6.03 0.68 3.06 0 0 Z " fill="#35AEC0" transform="translate(23,43)"/>
<path d="M0 0 C0.33 0 0.66 0 1 0 C1.33 2.31 1.66 4.62 2 7 C2.66 6.67 3.32 6.34 4 6 C3.01 8.97 2.02 11.94 1 15 C0.67 15 0.34 15 0 15 C0 10.05 0 5.1 0 0 Z " fill="#081E69" transform="translate(164,208)"/>
<path d="M0 0 C1.32 0.33 2.64 0.66 4 1 C4 2.98 4 4.96 4 7 C3.01 7.495 3.01 7.495 2 8 C2 7.34 2 6.68 2 6 C1.34 6 0.68 6 0 6 C0 4.02 0 2.04 0 0 Z " fill="#0BB593" transform="translate(142,85)"/>
<path d="M0 0 C1.98 0 3.96 0 6 0 C6 0.99 6 1.98 6 3 C4.35 3.66 2.7 4.32 1 5 C0.67 3.35 0.34 1.7 0 0 Z " fill="#12286C" transform="translate(73,195)"/>
<path d="M0 0 C0.66 0.33 1.32 0.66 2 1 C0.79157144 5.43090471 -0.51668565 7.98112756 -4 11 C-3.47731534 8.23723823 -2.89130413 5.6739124 -2 3 C-1.34 3 -0.68 3 0 3 C0 2.01 0 1.02 0 0 Z " fill="#1DADA3" transform="translate(225,143)"/>
<path d="M0 0 C0.33 0.66 0.66 1.32 1 2 C0.01 3.485 0.01 3.485 -1 5 C-1.99 5 -2.98 5 -4 5 C-4 5.66 -4 6.32 -4 7 C-5.65 7.33 -7.3 7.66 -9 8 C-6.14723863 5.06799526 -3.34920216 2.35684596 0 0 Z " fill="#2056A2" transform="translate(167,113)"/>
<path d="M0 0 C0.66 0.33 1.32 0.66 2 1 C1.67 1.99 1.34 2.98 1 4 C2.32 3.34 3.64 2.68 5 2 C5 2.99 5 3.98 5 5 C3.35 5.33 1.7 5.66 0 6 C-0.38218767 4.34385343 -0.71395102 2.67542976 -1 1 C-0.67 0.67 -0.34 0.34 0 0 Z " fill="#24ABA2" transform="translate(147,108)"/>
<path d="M0 0 C1.91796875 0.6875 1.91796875 0.6875 4 2 C4.86328125 4.3125 4.86328125 4.3125 5.3125 7 C5.47363281 7.886875 5.63476562 8.77375 5.80078125 9.6875 C6 12 6 12 5 14 C4 13 4 13 3.6875 9.1875 C3.33856812 5.94824902 3.10494024 5.12720029 0.9375 2.5 C0.298125 2.005 -0.34125 1.51 -1 1 C-0.67 0.67 -0.34 0.34 0 0 Z " fill="#35478A" transform="translate(50,80)"/>
<path d="M0 0 C0.66 0.66 1.32 1.32 2 2 C0.35 3.65 -1.3 5.3 -3 7 C-3.99 6.67 -4.98 6.34 -6 6 C-4 4 -2 2 0 0 Z " fill="#1F3C87" transform="translate(39,76)"/>
<path d="M0 0 C0 0.66 0 1.32 0 2 C-1.64453125 3.32421875 -1.64453125 3.32421875 -3.8125 4.6875 C-4.52019531 5.14511719 -5.22789063 5.60273438 -5.95703125 6.07421875 C-8 7 -8 7 -11 6 C-9.54550599 4.9944239 -8.08627557 3.99569565 -6.625 3 C-5.40683594 2.1646875 -5.40683594 2.1646875 -4.1640625 1.3125 C-2 0 -2 0 0 0 Z " fill="#2BB2B0" transform="translate(32,10)"/>
<path d="M0 0 C-2 2 -2 2 -4.1640625 2.1953125 C-5.38222656 2.16050781 -5.38222656 2.16050781 -6.625 2.125 C-7.44226563 2.10695312 -8.25953125 2.08890625 -9.1015625 2.0703125 C-9.72804687 2.04710937 -10.35453125 2.02390625 -11 2 C-10.67 1.34 -10.34 0.68 -10 0 C-6.18015204 -0.77811718 -3.73159669 -1.24386556 0 0 Z " fill="#333C79" transform="translate(178,247)"/>
<path d="M0 0 C2.31 0 4.62 0 7 0 C6.67 1.32 6.34 2.64 6 4 C5.67 3.34 5.34 2.68 5 2 C4.01 2 3.02 2 2 2 C1.67 2.99 1.34 3.98 1 5 C0.67 3.35 0.34 1.7 0 0 Z " fill="#222E71" transform="translate(100,194)"/>
<path d="M0 0 C3.00617269 3.00617269 2.59585316 5.82381598 3 10 C2.34 10 1.68 10 1 10 C0.63720544 8.71073008 0.28503302 7.41846728 -0.0625 6.125 C-0.35833984 5.04605469 -0.35833984 5.04605469 -0.66015625 3.9453125 C-1 2 -1 2 0 0 Z " fill="#39BCB2" transform="translate(233,126)"/>
<path d="M0 0 C0.66 0.33 1.32 0.66 2 1 C1.01 3.97 0.02 6.94 -1 10 C-1.66 8.68 -2.32 7.36 -3 6 C-1.625 2.75 -1.625 2.75 0 0 Z " fill="#132D95" transform="translate(26,125)"/>
<path d="M0 0 C0.99 0.33 1.98 0.66 3 1 C2.21718695 2.33855056 1.42348123 3.67073644 0.625 5 C0.18414062 5.7425 -0.25671875 6.485 -0.7109375 7.25 C-1.34902344 8.11625 -1.34902344 8.11625 -2 9 C-2.66 9 -3.32 9 -4 9 C-3.67 7.35 -3.34 5.7 -3 4 C-2.34 4 -1.68 4 -1 4 C-0.67 2.68 -0.34 1.36 0 0 Z " fill="#1D3595" transform="translate(33,113)"/>
<path d="M0 0 C1.70840281 1.63412443 2.93453047 2.86906094 4 5 C4.039992 6.99960012 4.04346799 9.00047242 4 11 C3.34 10.67 2.68 10.34 2 10 C1.3671875 7.71484375 1.3671875 7.71484375 0.875 4.9375 C0.70742187 4.01839844 0.53984375 3.09929687 0.3671875 2.15234375 C0.24601563 1.44207031 0.12484375 0.73179688 0 0 Z " fill="#2AACA7" transform="translate(132,81)"/>
<path d="M0 0 C0.66 0.99 1.32 1.98 2 3 C1.5390625 5.04296875 1.5390625 5.04296875 0.625 7.1875 C0.32851562 7.90292969 0.03203125 8.61835937 -0.2734375 9.35546875 C-0.51320312 9.89816406 -0.75296875 10.44085938 -1 11 C-1.99 10.67 -2.98 10.34 -4 10 C-2.68 6.7 -1.36 3.4 0 0 Z " fill="#30BEA8" transform="translate(222,47)"/>
<path d="M0 0 C0.33 0 0.66 0 1 0 C1.28571429 8.57142857 1.28571429 8.57142857 -1 12 C-1.66 11.34 -2.32 10.68 -3 10 C-3 8.68 -3 7.36 -3 6 C-2.34 5.67 -1.68 5.34 -1 5 C-0.34444881 2.47266765 -0.34444881 2.47266765 0 0 Z " fill="#BDBEC4" transform="translate(163,210)"/>
<path d="M0 0 C0.99 0 1.98 0 3 0 C3 0.66 3 1.32 3 2 C3.99 2 4.98 2 6 2 C6 2.66 6 3.32 6 4 C4.02 4 2.04 4 0 4 C0 2.68 0 1.36 0 0 Z " fill="#313D74" transform="translate(215,198)"/>
<path d="M0 0 C1.74627478 2.61941217 2.38722388 4.03824877 3 7 C2.01 6.67 1.02 6.34 0 6 C0 5.34 0 4.68 0 4 C-0.99 4 -1.98 4 -3 4 C-2.67 3.01 -2.34 2.02 -2 1 C-1.34 0.67 -0.68 0.34 0 0 Z " fill="#2B3F93" transform="translate(105,149)"/>
<path d="M0 0 C0.33 0.66 0.66 1.32 1 2 C0.0625 4.125 0.0625 4.125 -1 6 C-0.01 6.33 0.98 6.66 2 7 C1.34 7.66 0.68 8.32 0 9 C-1.32 7.35 -2.64 5.7 -4 4 C-2.68 2.68 -1.36 1.36 0 0 Z " fill="#2252A6" transform="translate(60,104)"/>
<path d="M0 0 C0 0.99 0 1.98 0 3 C-2.8125 5.25 -2.8125 5.25 -6 7 C-6.99 6.67 -7.98 6.34 -9 6 C-6.03 4.02 -3.06 2.04 0 0 Z " fill="#248AB5" transform="translate(93,43)"/>
<path d="M0 0 C2.64 0 5.28 0 8 0 C8.33 0.99 8.66 1.98 9 3 C5.625 3.1875 5.625 3.1875 2 3 C1.34 2.01 0.68 1.02 0 0 Z " fill="#3D437C" transform="translate(231,246)"/>
<path d="M0 0 C0.33 0.66 0.66 1.32 1 2 C2.32 2 3.64 2 5 2 C5 1.34 5 0.68 5 0 C5.66 0.33 6.32 0.66 7 1 C6.67 1.99 6.34 2.98 6 4 C3.69 4 1.38 4 -1 4 C-0.67 2.68 -0.34 1.36 0 0 Z " fill="#42477A" transform="translate(156,245)"/>
<path d="M0 0 C0.99 1.485 0.99 1.485 2 3 C1.34 3 0.68 3 0 3 C0 2.01 0 1.02 0 0 Z M2 0 C2.99 0 3.98 0 5 0 C5 2.31 5 4.62 5 7 C4.34 6.67 3.68 6.34 3 6 C2.375 2.9375 2.375 2.9375 2 0 Z " fill="#253369" transform="translate(129,209)"/>
<path d="M0 0 C1.8125 0.05078125 1.8125 0.05078125 4 0.3125 C4.721875 0.39113281 5.44375 0.46976562 6.1875 0.55078125 C7.0846875 0.77314453 7.0846875 0.77314453 8 1 C8.33 1.66 8.66 2.32 9 3 C2.9453125 3.1953125 2.9453125 3.1953125 1 3 C0.34 2.34 -0.32 1.68 -1 1 C-0.67 0.67 -0.34 0.34 0 0 Z " fill="#3B4B99" transform="translate(197,102)"/>
<path d="M0 0 C3.65316671 1.24976756 4.78065836 1.67098753 7 5 C4.03 4.67 1.06 4.34 -2 4 C-1.34 2.68 -0.68 1.36 0 0 Z " fill="#2B54A0" transform="translate(63,100)"/>
<path d="M0 0 C0.66 0.33 1.32 0.66 2 1 C-0.97 3.475 -0.97 3.475 -4 6 C-4.66 5.67 -5.32 5.34 -6 5 C-6 4.34 -6 3.68 -6 3 C-4.03533587 1.93224776 -2.03144641 0.93446535 0 0 Z " fill="#106CAE" transform="translate(71,60)"/>
<path d="M0 0 C2.31 0 4.62 0 7 0 C6.34 1.32 5.68 2.64 5 4 C3.02 3.34 1.04 2.68 -1 2 C-0.67 1.34 -0.34 0.68 0 0 Z " fill="#333C74" transform="translate(21,194)"/>
<path d="M0 0 C0.66 0.66 1.32 1.32 2 2 C0.1875 5 0.1875 5 -2 8 C-2.99 8 -3.98 8 -5 8 C-4.360625 7.236875 -3.72125 6.47375 -3.0625 5.6875 C-0.85767219 3.11753287 -0.85767219 3.11753287 0 0 Z " fill="#23B0AE" transform="translate(232,153)"/>
<path d="M0 0 C1.98 0 3.96 0 6 0 C3.82575883 2.50037734 2.26954202 3.43628586 -1 4 C-0.67 2.68 -0.34 1.36 0 0 Z " fill="#1B4AA7" transform="translate(147,138)"/>
<path d="M0 0 C2.40921705 2.40921705 3.53812156 4.94334509 5 8 C3.125 7.875 3.125 7.875 1 7 C-0.25 3.9375 -0.25 3.9375 -1 1 C-0.67 0.67 -0.34 0.34 0 0 Z " fill="#31B6A4" transform="translate(97,100)"/>
<path d="M0 0 C0.66 0.33 1.32 0.66 2 1 C-1.44615385 5.8 -1.44615385 5.8 -4.25 6.8125 C-5.11625 6.9053125 -5.11625 6.9053125 -6 7 C-6 6.34 -6 5.68 -6 5 C-5.195625 4.731875 -4.39125 4.46375 -3.5625 4.1875 C-2.716875 3.795625 -1.87125 3.40375 -1 3 C-0.67 2.01 -0.34 1.02 0 0 Z " fill="#20A1BF" transform="translate(133,94)"/>
<path d="M0 0 C0.66 0.66 1.32 1.32 2 2 C-2.455 3.485 -2.455 3.485 -7 5 C-7.33 4.34 -7.66 3.68 -8 3 C-5.36 2.01 -2.72 1.02 0 0 Z " fill="#2DB7A7" transform="translate(146,16)"/>
<path d="M0 0 C-1.0625 1.5625 -1.0625 1.5625 -3 3 C-6.6875 2.6875 -6.6875 2.6875 -10 2 C-10 1.67 -10 1.34 -10 1 C-6.59437148 0.22157062 -3.49234244 -0.09978121 0 0 Z " fill="#2CBDAA" transform="translate(174,9)"/>
<path d="M0 0 C0 3 0 3 -1 5 C-0.34 5 0.32 5 1 5 C1 5.99 1 6.98 1 8 C0.01 8.33 -0.98 8.66 -2 9 C-2.125 5.625 -2.125 5.625 -2 2 C-1.34 1.34 -0.68 0.68 0 0 Z " fill="#101E5A" transform="translate(211,240)"/>
<path d="M0 0 C2.49361571 1.20381448 4.68143083 2.45428722 7 4 C7 4.66 7 5.32 7 6 C2.32307692 4.52307692 2.32307692 4.52307692 0.6875 1.875 C0.460625 1.25625 0.23375 0.6375 0 0 Z " fill="#3586BB" transform="translate(114,154)"/>
<path d="M0 0 C1.32 0.33 2.64 0.66 4 1 C3.625 2.9375 3.625 2.9375 3 5 C2.01 5.495 2.01 5.495 1 6 C0.67 4.02 0.34 2.04 0 0 Z " fill="#238EB8" transform="translate(142,150)"/>
<path d="M0 0 C0.66 0 1.32 0 2 0 C1.67 2.64 1.34 5.28 1 8 C0.34 7.67 -0.32 7.34 -1 7 C-0.67 4.69 -0.34 2.38 0 0 Z " fill="#25B7A7" transform="translate(234,145)"/>
<path d="M0 0 C-0.33 1.98 -0.66 3.96 -1 6 C-2.32 5.34 -3.64 4.68 -5 4 C-5 3.34 -5 2.68 -5 2 C-2 0 -2 0 0 0 Z " fill="#36BDB9" transform="translate(136,40)"/>
<path d="M0 0 C0 0.66 0 1.32 0 2 C-2.64 2.66 -5.28 3.32 -8 4 C-7.67 3.01 -7.34 2.02 -7 1 C-4.52260646 0.09162237 -2.66420516 0 0 0 Z " fill="#14B6BA" transform="translate(45,17)"/>
<path d="M0 0 C5.75 1.75 5.75 1.75 8 4 C6.68 4.33 5.36 4.66 4 5 C4 4.34 4 3.68 4 3 C2.68 2.67 1.36 2.34 0 2 C0 1.34 0 0.68 0 0 Z " fill="#29C1AC" transform="translate(214,9)"/>
</svg>
